<svg xmlns="http://www.w3.org/2000/svg" xmlns:xlink="http://www.w3.org/1999/xlink" xmlns:inkscape="http://www.inkscape.org/namespaces/inkscape" version="1.1" width="254" height="184" viewBox="0 0 254 184">
<defs>
<path id="font_1_1" d="M.5732422 .5078125C.5732422 .47558595 .56762698 .4457194 .5563965 .4182129 .545166 .3907064 .52945968 .36686198 .50927737 .3466797 .48421226 .3216146 .45458985 .30281578 .42041017 .2902832 .38623048 .27775065 .34309898 .27148438 .29101563 .27148438H.19433594V0H.09765625V.72753909H.29492188C.33854167 .72753909 .37548829 .72387698 .40576173 .71655276 .43603517 .7092285 .46289063 .6977539 .48632813 .6821289 .5139974 .6635742 .5354004 .6404622 .5505371 .61279299 .5656738 .5851237 .5732422 .5501302 .5732422 .5078125M.47265626 .50556948C.47265626 .53042098 .46826173 .55204269 .45947267 .5704346 .4506836 .58883669 .43733726 .6038513 .4194336 .6154785 .4038086 .6254781 .38598634 .63265487 .3659668 .63700869 .34594728 .6413727 .32063804 .6435547 .29003907 .6435547H.19433594V.35546876H.2758789C.3149414 .35546876 .3466797 .3589376 .37109376 .36587525 .3955078 .3728129 .4153646 .38387046 .43066407 .39904786 .44596354 .41454063 .4567871 .430837 .46313478 .447937 .46948243 .4650472 .47265626 .48425804 .47265626 .50556948Z"/>
<path id="font_1_2" d="M.71191409 .3630371C.71191409 .29691569 .69750979 .23697917 .6687012 .18322754 .6398926 .12948609 .6015625 .08779398 .55371096 .058151246 .5205078 .03762309 .48347984 .02279663 .44262696 .013671875 .40177409 .0045572917 .34798179 0 .28125 0H.09765625V.72753909H.27929688C.3502604 .72753909 .4066569 .72240707 .44848634 .71214297 .49031578 .70188906 .5257161 .6878001 .5546875 .6698761 .6041667 .6389313 .6427409 .5977275 .67041018 .54626467 .6980794 .49480186 .71191409 .43372599 .71191409 .3630371M.61083987 .36450196C.61083987 .42131553 .60091146 .46920268 .5810547 .50816348 .56119796 .5471242 .5315755 .57780459 .4921875 .60020449 .46354167 .6164398 .43310548 .62772116 .4008789 .63404849 .36865235 .6403859 .33007813 .6435547 .28515626 .6435547H.19433594V.083984378H.28515626C.33170573 .083984378 .37231446 .08739217 .40698243 .09420776 .4416504 .10102335 .47347007 .11368815 .5024414 .13220215 .5385742 .1552531 .5656738 .18560791 .58374026 .2232666 .60180667 .2609253 .61083987 .30800376 .61083987 .36450196Z"/>
<path id="font_1_3" d="M.7451172 0H.6484375V.6268616L.44628907 .20019531H.38867188L.18798828 .6268616V0H.09765625V.72753909H.22949219L.42333985 .32237245 .61083987 .72753909H.7451172V0Z"/>
<path id="font_1_4" d=""/>
<path id="font_1_5" d="M.62597659 .20716858C.62597659 .17882793 .61938479 .15081279 .6062012 .12312317 .5930176 .095443729 .57454428 .071996059 .55078127 .05278015 .52473959 .03192647 .49438478 .015635172 .4597168 .00390625 .42504884-.0078125 .38330079-.013671875 .33447267-.013671875 .2820638-.013671875 .23494466-.00877889 .19311524 .0010070801 .15128581 .010803223 .10872396 .02532959 .06542969 .04458618V.16601563H.072265628C.10904948 .13541667 .15152996 .111816409 .19970703 .095214847 .24788411 .07861328 .2931315 .0703125 .33544923 .0703125 .39534507 .0703125 .44197593 .08150736 .4753418 .103897098 .5087077 .126297 .5253906 .15616353 .5253906 .1934967 .5253906 .2257436 .51749679 .2495219 .501709 .26483155 .48592124 .2801412 .46191407 .2920278 .4296875 .30049134 .40527345 .30701194 .37882487 .3123881 .3503418 .31661988 .32185874 .32085166 .29166667 .3262278 .25976563 .3327484 .1953125 .34643046 .14754232 .36980186 .11645508 .40286256 .085367839 .43592326 .06982422 .4789988 .06982422 .53208926 .06982422 .5930023 .09554037 .6429189 .14697266 .681839 .19840496 .7207692 .26367188 .7402344 .34277345 .7402344 .39388023 .7402344 .44075523 .73535159 .48339845 .72558596 .5260417 .7158203 .56380209 .70377609 .5966797 .6894531V.5751953H.58984377C.5621745 .5984904 .52579757 .6178233 .4807129 .63319399 .43562828 .64856466 .3894857 .65625 .34228517 .65625 .29052735 .65625 .24894206 .64553835 .2175293 .624115 .18611653 .60270187 .17041016 .5751241 .17041016 .54138186 .17041016 .5110881 .17822266 .48730979 .19384766 .470047 .20947266 .4527842 .23697917 .43959046 .2763672 .4304657 .29720054 .42590843 .3268229 .42036949 .36523438 .41384889 .40364585 .40733848 .4361979 .4006602 .46289063 .3938141 .51692709 .379481 .5576172 .3578186 .58496096 .3288269 .6123047 .29984538 .62597659 .2592926 .62597659 .20716858Z"/>
<path id="font_1_6" d="M.49365235 .033691408C.46305339 .019042969 .43400065 .0076497399 .40649415-.00048828127 .37898765-.008626302 .34977214-.0126953129 .31884767-.0126953129 .27945964-.0126953129 .24332683-.006907145 .21044922 .0046691896 .17757161 .016245524 .14941406 .033772787 .12597656 .057250978 .10221354 .080729167 .08382162 .11040243 .07080078 .14627075 .05777995 .18213909 .05126953 .22403972 .05126953 .27197267 .05126953 .36131797 .07576498 .4314219 .12475586 .48228456 .17374675 .53315737 .23844402 .55859377 .31884767 .55859377 .35009767 .55859377 .38077799 .5541992 .41088868 .54541018 .44099937 .5366211 .46858726 .5258789 .49365235 .5131836V.4111328H.48876954C.46077476 .43279014 .43188478 .44943238 .4020996 .46105958 .37231446 .47269694 .34326173 .47851563 .3149414 .47851563 .26285807 .47851563 .22176107 .4610189 .19165039 .4260254 .16153972 .3910319 .14648438 .339681 .14648438 .27197267 .14648438 .20621746 .16121419 .15568035 .19067383 .12036133 .22013347 .08504232 .261556 .06738281 .3149414 .06738281 .3334961 .06738281 .3523763 .06980387 .37158204 .074645999 .39078776 .07949829 .40804038 .08580526 .42333985 .093566898 .4366862 .10035197 .44921876 .10753886 .4609375 .11512756 .47265626 .12272644 .4819336 .12927246 .48876954 .13476563H.49365235V.033691408Z"/>
<path id="font_1_7" d="M.5551758 .27270509C.5551758 .18361409 .53238937 .11328634 .4868164 .0617218 .4412435 .010157268 .38020835-.015625 .30371095-.015625 .2265625-.015625 .1652832 .010157268 .11987305 .0617218 .07446289 .11328634 .051757814 .18361409 .051757814 .27270509 .051757814 .36179606 .07446289 .4322052 .11987305 .4839325 .1652832 .5356598 .2265625 .56152346 .30371095 .56152346 .38020835 .56152346 .4412435 .5356598 .4868164 .4839325 .53238937 .4322052 .5551758 .36179606 .5551758 .27270509M.46044923 .27270509C.46044923 .34326173 .4466146 .39569093 .4189453 .42999269 .39127604 .46429444 .3528646 .4814453 .30371095 .4814453 .25390626 .4814453 .21525066 .46429444 .18774414 .42999269 .16023763 .39569093 .14648438 .34326173 .14648438 .27270509 .14648438 .20442708 .16031902 .15264893 .18798828 .117370609 .21565755 .082092288 .25423179 .064453128 .30371095 .064453128 .35253907 .064453128 .39086915 .08192953 .41870118 .116882327 .4465332 .15183513 .46044923 .20377605 .46044923 .27270509Z"/>
<path id="font_1_8" d="M.43066407 .44628907H.42578126C.41210938 .44937135 .3988444 .45160423 .38598634 .45298768 .37312828 .45438133 .35791017 .45507813 .34033204 .45507813 .31201173 .45507813 .28466798 .44880168 .25830079 .43624879 .2319336 .42370606 .20654297 .40749613 .1821289 .38761903V0H.09033203V.54589846H.1821289V.46525575C.21858724 .49458314 .25073243 .5153554 .27856446 .52757266 .30639649 .53978988 .3347982 .54589846 .36376954 .54589846 .37972007 .54589846 .39127604 .5454915 .3984375 .54467776 .40559898 .5438741 .41634117 .5423381 .43066407 .5400696V.44628907Z"/>
<path id="font_1_9" d="M.546875 .26367188H.14501953C.14501953 .23006185 .15006511 .20077515 .16015625 .17581177 .17024739 .15084839 .18408203 .1303711 .20166016 .11437988 .21858724 .098714198 .23868816 .08696493 .2619629 .07913208 .28523765 .07129923 .3108724 .06738281 .3388672 .06738281 .37597657 .06738281 .41333009 .07484436 .45092774 .089767459 .4885254 .10469055 .5152995 .11936442 .53125 .13378906H.5361328V.033355714C.5052083 .02029419 .4736328 .009353638 .44140626 .0005340576 .4091797-.008285522 .37532554-.0126953129 .33984376-.0126953129 .24934896-.0126953129 .17871094 .01184082 .12792969 .060913087 .07714844 .10998535 .051757814 .1796875 .051757814 .27001954 .051757814 .35935465 .07609049 .43027244 .12475586 .48277284 .17342122 .53527328 .23746746 .56152346 .31689454 .56152346 .39046226 .56152346 .44718424 .5400035 .48706056 .4969635 .5269368 .45392356 .546875 .39278666 .546875 .31355287V.26367188M.45751954 .33398438C.457194 .38216148 .44506837 .4194336 .42114259 .44580079 .3972168 .47216798 .36083985 .48535157 .31201173 .48535157 .26285807 .48535157 .22371419 .47086589 .19458008 .44189454 .16544597 .4129232 .14892578 .37695313 .14501953 .33398438H.45751954Z"/>
<path id="font_1_10" d="M.51416018 0H.42285157V.05770874C.41471354 .052164716 .4037272 .04442342 .38989259 .034484865 .37605796 .024546305 .36263023 .016642252 .34960938 .010772705 .3343099 .0032755535 .31673179-.0029958089 .296875-.008041382 .27701823-.013097127 .2537435-.015625 .22705078-.015625 .17789714-.015625 .13623047 .0006713867 .10205078 .03326416 .067871097 .06585693 .05078125 .107416789 .05078125 .15794373 .05078125 .19933574 .05965169 .23282369 .07739258 .2584076 .09513346 .28400169 .12044271 .30412803 .15332031 .31878663 .18652344 .3334554 .22639974 .34339906 .27294923 .34861756 .3194987 .35383607 .36946617 .3577474 .42285157 .36035157V.3746338C.42285157 .39564006 .41918946 .41303507 .41186524 .42681886 .40454103 .44060264 .39404298 .45143638 .3803711 .45932008 .36735026 .46686808 .35172526 .47195436 .3334961 .47457887 .31526695 .47720338 .29622398 .47851563 .2763672 .47851563 .25227867 .47851563 .22542317 .47525535 .19580078 .46873475 .16617839 .46222434 .13557942 .4527893 .104003909 .4404297H.099121097V.5336914C.11702474 .5385742 .14290364 .5439453 .17675781 .5498047 .21061199 .55566409 .24397786 .55859377 .27685548 .55859377 .31526695 .55859377 .3487142 .5554199 .37719728 .54907229 .40568034 .5427246 .43033854 .53190109 .45117188 .51660159 .4716797 .5016276 .4873047 .48225913 .49804688 .4584961 .50878909 .43473307 .51416018 .40527345 .51416018 .3701172V0M.42285157 .1335907V.2861328C.39485679 .28449504 .3618978 .28203837 .3239746 .27876283 .28605143 .27549745 .25602214 .27076213 .23388672 .26455689 .20751953 .2570292 .18619792 .24533589 .16992188 .22947693 .15364583 .21361797 .14550781 .1917928 .14550781 .16400147 .14550781 .13260906 .15494792 .10898336 .17382813 .09312439 .19270833 .07726542 .22151692 .06933594 .2602539 .06933594 .29248048 .06933594 .3219401 .07562765 .3486328 .08821106 .37532554 .10080465 .4000651 .11593119 .42285157 .1335907Z"/>
<path id="font_1_11" d="M.37353517 .0048065187C.35628257 .00026957194 .33748374-.0034535726 .31713868-.006362915 .2967936-.00928243 .27864585-.0107421879 .2626953-.0107421879 .20703125-.0107421879 .16471355 .00424703 .13574219 .034225465 .106770839 .064203899 .092285159 .11226908 .092285159 .17842102V.46875H.030273438V.54589846H.092285159V.703125H.18408203V.54589846H.37353517V.46875H.18408203V.21960449C.18408203 .19088745 .18473308 .16845195 .18603516 .15229798 .18733724 .136144 .19189453 .12105306 .19970703 .10702515 .20686849 .09397379 .2167155 .08442688 .22924805 .0783844 .2417806 .07235209 .26090495 .06933594 .2866211 .06933594 .30159507 .06933594 .31722007 .0715332 .3334961 .075927738 .34977214 .080322269 .36149089 .083984378 .36865235 .08691406H.37353517V.0048065187Z"/>
<path id="font_1_12" d="M.47998048 .15756226C.47998048 .107798259 .45939128 .066980998 .4182129 .035110475 .37703453 .0032399495 .32080079-.0126953129 .24951172-.0126953129 .20914714-.0126953129 .17211914-.007878621 .13842774 .0017547608 .10473633 .011388143 .0764974 .021921793 .053710939 .033355714V.13671875H.05859375C.0875651 .11461385 .119791667 .09704081 .15527344 .083999637 .1907552 .07096863 .22477214 .064453128 .25732423 .064453128 .2976888 .064453128 .3292643 .070988979 .35205079 .08406067 .37483726 .09714254 .38623048 .117741908 .38623048 .14585877 .38623048 .1673228 .38004557 .18358357 .36767579 .19464112 .355306 .20569866 .33154298 .21513367 .29638673 .22294617 .28336589 .22586568 .26635743 .22927857 .24536133 .23318482 .22436524 .23709107 .20524089 .24131775 .18798828 .24586487 .14013672 .25855003 .10620117 .2771708 .08618164 .3017273 .06616211 .32628379 .056152345 .3564504 .056152345 .39222718 .056152345 .41466777 .060791017 .43580628 .07006836 .4556427 .0793457 .4754893 .09342448 .49322 .11230469 .50883486 .13053386 .52411398 .15372722 .53622439 .18188477 .545166 .21004232 .55411788 .24153646 .55859377 .2763672 .55859377 .30891929 .55859377 .34187828 .5546214 .37524415 .54667666 .40861003 .5387319 .4363607 .5290782 .4584961 .51771548V.41992188H.45361329C.43017579 .43717448 .40169273 .45174156 .36816407 .46362306 .3346354 .47550456 .3017578 .4814453 .26953126 .4814453 .23600261 .4814453 .2076823 .47498576 .18457031 .46206666 .16145833 .44914756 .14990235 .42993675 .14990235 .4044342 .14990235 .38199363 .15690105 .3650818 .17089844 .35369874 .18457031 .34231568 .20670574 .33304344 .23730469 .32588197 .25423179 .3219757 .27319337 .31806947 .29418946 .3141632 .31518556 .31026713 .33268229 .3066915 .3466797 .30343629 .3893229 .29368083 .42220054 .27693177 .4453125 .2531891 .46842448 .2291209 .47998048 .19724529 .47998048 .15756226Z"/>
<path id="font_1_13" d="M.18896485 .63671877H.08544922V.7324219H.18896485V.63671877M.18310547 0H.091308597V.54589846H.18310547V0Z"/>
<path id="font_1_14" d="M.48583985 0H.045410158V.06738281L.36328126 .46875H.052246095V.54589846H.47753907V.48046876L.15820313 .07714844H.48583985V0Z"/>
<path id="font_1_15" d="M.38232423-.20117188H.2705078C.21289063-.13509114 .16813152-.06298828 .13623047 .015136719 .10432943 .09326172 .088378909 .18131511 .088378909 .27929688 .088378909 .37727867 .10432943 .46533204 .13623047 .54345706 .16813152 .62158206 .21289063 .6936849 .2705078 .7597656H.38232423V.7548828C.35595704 .7311198 .33081056 .70369467 .30688478 .6726074 .28295899 .6415202 .2607422 .60530599 .24023438 .56396487 .22070313 .5239258 .20483399 .47981773 .19262696 .43164063 .18041992 .38346354 .1743164 .33268229 .1743164 .27929688 .1743164 .22363281 .18025716 .1726888 .19213867 .12646485 .20402019 .08024088 .22005208 .036295576 .24023438-.0053710939 .25976563-.045410158 .2820638-.08162435 .3071289-.11401367 .332194-.146403 .35725913-.17382813 .38232423-.19628906V-.20117188Z"/>
<path id="font_1_16" d="M.65234377 0H.53271487L.18798828 .65083315V0H.09765625V.72753909H.2475586L.5620117 .13339234V.72753909H.65234377V0Z"/>
<path id="font_1_17" d="M.54248049 0H.4506836V.060195924C.41975913 .03574117 .39013673 .01698812 .3618164 .0039367678 .3334961-.009104411 .3022461-.015625 .2680664-.015625 .21077474-.015625 .16617839 .0019022623 .13427735 .036956788 .102376308 .072011318 .08642578 .12345377 .08642578 .19128418V.54589846H.17822266V.23503113C.17822266 .20733135 .17952474 .18362427 .1821289 .16390991 .18473308 .14419556 .19026692 .1273346 .19873047 .11332703 .20751953 .098983768 .21891277 .08855184 .23291016 .08203125 .24690755 .075520839 .2672526 .072265628 .2939453 .072265628 .31770835 .072265628 .3436686 .078455608 .37182618 .09083557 .39998374 .10322571 .42626954 .119028728 .4506836 .13824463V.54589846H.54248049V0Z"/>
<path id="font_1_18" d="M.88623049 0H.7944336V.3108673C.7944336 .33432517 .7933757 .3569692 .79125979 .37879945 .78914389 .40063987 .78466799 .41807557 .77783206 .43110658 .77034506 .4451243 .75960287 .4557139 .74560549 .46287538 .7316081 .470047 .7114258 .4736328 .6850586 .4736328 .65934249 .4736328 .6336263 .4671936 .60791018 .4543152 .58219406 .44144694 .55647787 .42507426 .5307617 .40519715 .5317383 .39771018 .53255209 .3889974 .5332031 .37905885 .5338542 .36912028 .5341797 .3592631 .5341797 .3494873V0H.4423828V.3108673C.4423828 .3349762 .44132487 .35786439 .43920899 .37953187 .4370931 .4012095 .4326172 .41856385 .42578126 .43159486 .41829429 .44561259 .4075521 .45612083 .3935547 .4631195 .37955729 .4701284 .359375 .4736328 .3330078 .4736328 .30794273 .4736328 .28279624 .46743775 .25756837 .4550476 .2323405 .44266764 .20719402 .42686973 .1821289 .4076538V0H.09033203V.54589846H.1821289V.48529054C.21077474 .5092265 .23933919 .5279134 .26782228 .5413513 .29630534 .5547994 .32666017 .56152346 .35888673 .56152346 .3959961 .56152346 .42749024 .5536601 .45336915 .53793337 .47924806 .5222168 .49853517 .50043746 .51123049 .4725952 .54833987 .5040385 .58219406 .52671816 .61279299 .54063418 .6433919 .55456039 .67610678 .56152346 .7109375 .56152346 .7708333 .56152346 .81502279 .54334518 .84350588 .5069885 .87198898 .47063194 .88623049 .41984049 .88623049 .35461427V0Z"/>
<path id="font_1_19" d="M.5703125 .27711488C.5703125 .23141988 .5638835 .19029744 .5510254 .15374756 .5381673 .11719767 .5208333 .08652242 .49902345 .0617218 .47591148 .03593445 .45052085 .016596476 .42285157 .0037078858 .39518229-.009180705 .3647461-.015625 .33154298-.015625 .3006185-.015625 .27360026-.011952718 .25048829-.0046081545 .2273763 .0027364095 .20458985 .012608846 .1821289 .025009156L.17626953 0H.09033203V.7597656H.1821289V.4890747C.20784505 .5102844 .2351888 .5276591 .26416017 .54119876 .2931315 .55474856 .3256836 .56152346 .3618164 .56152346 .42626954 .56152346 .47713218 .5367177 .5144043 .48710633 .55167648 .4375051 .5703125 .36750794 .5703125 .27711488M.47558595 .2746582C.47558595 .33984376 .46484376 .38930259 .44335938 .42303468 .421875 .45676676 .38720704 .4736328 .33935548 .4736328 .31266276 .4736328 .28564454 .46784465 .25830079 .4562683 .23095703 .44470216 .2055664 .4297943 .1821289 .4115448V.09866333C.20817058 .08693441 .23055013 .07878622 .24926758 .07421875 .26798503 .06966146 .28922526 .06738281 .31298829 .06738281 .36376954 .06738281 .40356446 .0840861 .43237306 .117492679 .46118165 .15089925 .47558595 .20328777 .47558595 .2746582Z"/>
<path id="font_1_20" d="M.38378907 .67089846H.37890626C.3688151 .6738281 .3556315 .6768392 .33935548 .67993167 .32307945 .6830241 .3087565 .6845703 .29638673 .6845703 .2569987 .6845703 .22843425 .6758931 .21069336 .6585388 .19295247 .6411845 .18408203 .60980227 .18408203 .5643921V.54589846H.34960938V.46875H.18701172V0H.095214847V.46875H.033203126V.54589846H.095214847V.56391909C.095214847 .6285553 .111328128 .6781667 .14355469 .7127533 .17578125 .74735006 .22233074 .76464846 .28320313 .76464846 .30371095 .76464846 .32218424 .7636719 .33862306 .76171877 .35506187 .7597656 .3701172 .757487 .38378907 .7548828V.67089846Z"/>
<path id="font_1_21" d="M.5703125 .27978517C.5703125 .23544312 .56396487 .19493103 .55126956 .1582489 .5385742 .12156677 .5206706 .09050497 .4975586 .06506348 .47607423 .040934247 .45076499 .02226766 .42163087 .009063721 .39249674-.0041402184 .36165367-.0107421879 .32910157-.0107421879 .30078126-.0107421879 .27514649-.0076446535 .25219728-.001449585 .22924805 .0047454836 .20589192 .014363606 .1821289 .027404786V-.20117188H.09033203V.54589846H.1821289V.48913575C.20654297 .5096741 .2339681 .5268707 .2644043 .5407257 .29484049 .5545909 .3273112 .56152346 .3618164 .56152346 .42757163 .56152346 .47875978 .5366567 .51538088 .48692323 .55200198 .43719993 .5703125 .3681539 .5703125 .27978517M.47558595 .27734376C.47558595 .34309898 .46435548 .3922526 .44189454 .4248047 .4194336 .45735679 .38492839 .4736328 .3383789 .4736328 .31201173 .4736328 .28548179 .4679362 .25878907 .45654298 .23209636 .44514976 .20654297 .43017579 .1821289 .4116211V.10253906C.20817058 .09082031 .23055013 .082845058 .24926758 .07861328 .26798503 .07438151 .28922526 .072265628 .31298829 .072265628 .36409507 .072265628 .40397135 .08951823 .4326172 .12402344 .46126304 .15852864 .47558595 .20963542 .47558595 .27734376Z"/>
<path id="font_1_22" d="M.18310547 0H.091308597V.7597656H.18310547V0Z"/>
<path id="font_1_23" d="M.36572267 .27929688C.36572267 .18131511 .34977214 .09326172 .3178711 .015136719 .28597007-.06298828 .24121094-.13509114 .18359375-.20117188H.071777347V-.19628906C.096842449-.17382813 .12198893-.146403 .1472168-.11401367 .17244466-.08162435 .19466146-.045410158 .21386719-.0053710939 .23404949 .036295576 .2500814 .08024088 .2619629 .12646485 .2738444 .1726888 .27978517 .22363281 .27978517 .27929688 .27978517 .33268229 .27376304 .38346354 .26171876 .43164063 .24967449 .47981773 .23372396 .5239258 .21386719 .56396487 .19335938 .60530599 .17114258 .6415202 .1472168 .6726074 .123291019 .70369467 .09814453 .7311198 .071777347 .7548828V.7597656H.18359375C.24121094 .6936849 .28597007 .62158206 .3178711 .54345706 .34977214 .46533204 .36572267 .37727867 .36572267 .27929688Z"/>
<path id="font_1_24" d="M.5761719 .20249939C.5761719 .13971456 .55167648 .087498988 .50268557 .04585266 .45369468 .004216512 .39208985-.016601563 .3178711-.016601563 .23909505-.016601563 .1763509 .0037282308 .12963867 .044387819 .08292643 .08505758 .059570314 .1371104 .059570314 .20054627 .059570314 .24088033 .07128906 .27739463 .09472656 .3100891 .11816406 .3427836 .15120442 .36872865 .19384766 .3879242V.39085389C.15478516 .41167704 .12589519 .43444825 .107177738 .45916749 .08846029 .48389689 .07910156 .514801 .07910156 .5518799 .07910156 .60653689 .1015625 .6520793 .14648438 .6885071 .19140625 .72494509 .24853516 .74316409 .3178711 .74316409 .39046226 .74316409 .44840495 .72575888 .49169923 .6909485 .53499349 .6561381 .5566406 .61189779 .5566406 .55822756 .5566406 .5253703 .5463867 .49308268 .5258789 .46136476 .5053711 .42964683 .4752604 .4048411 .43554688 .38694764V.38401795C.48111979 .36449687 .5159505 .34042359 .54003909 .3117981 .5641276 .2831726 .5761719 .2467397 .5761719 .20249939M.46044923 .5574951C.46044923 .5923665 .44702149 .6201477 .42016603 .6408386 .39331056 .66152957 .35904948 .671875 .3173828 .671875 .2763672 .671875 .24275716 .6620992 .21655274 .6425476 .19034831 .62299606 .1772461 .5966034 .1772461 .56336978 .1772461 .53990176 .18383789 .5196126 .19702149 .50250247 .21020508 .48540244 .23014324 .47016908 .25683595 .45680238 .26888023 .450943 .2862142 .44328819 .3088379 .4338379 .33146159 .4243876 .35351563 .41656495 .375 .41036988 .40722657 .4318746 .42952476 .45419313 .44189454 .47732545 .4542643 .50046798 .46044923 .52719119 .46044923 .5574951M.47558595 .19352722C.47558595 .22340393 .46899415 .24735005 .45581056 .2653656 .44262696 .28339134 .41682945 .3014984 .37841798 .3196869 .3631185 .326828 .34635417 .33348594 .328125 .33966065 .30989585 .34583537 .28564454 .35444132 .2553711 .36547853 .22607422 .3495687 .20255535 .3279724 .18481446 .3006897 .16707357 .27340699 .15820313 .24255371 .15820313 .20812989 .15820313 .16429647 .17333985 .12808736 .20361328 .09950256 .23388672 .07092794 .2722982 .056640626 .31884767 .056640626 .3663737 .056640626 .40437828 .06881714 .43286134 .093170169 .4613444 .11753336 .47558595 .15098572 .47558595 .19352722Z"/>
<path id="font_1_25" d="M.5698242 .36376954C.5698242 .23306275 .54939779 .13715108 .5085449 .076034549 .46769206 .014928182 .40429688-.015625 .31835938-.015625 .2311198-.015625 .1673991 .015340169 .12719727 .07727051 .086995448 .13920085 .06689453 .234375 .06689453 .36279298 .06689453 .4921875 .087239589 .58776858 .12792969 .64953616 .1686198 .7113037 .23209636 .7421875 .31835938 .7421875 .40559898 .7421875 .46931968 .7108154 .5095215 .6480713 .5497233 .58532717 .5698242 .4905599 .5698242 .36376954M.44140626 .14208985C.45279948 .16845703 .4605306 .19946289 .4645996 .23510742 .4686686 .27075196 .47070313 .3136393 .47070313 .36376954 .47070313 .4132487 .4686686 .45621745 .4645996 .49267579 .4605306 .5291341 .45263673 .5600586 .44091798 .5854492 .42952476 .61051437 .4139811 .62939456 .3942871 .64208987 .3745931 .65478518 .34928385 .6611328 .31835938 .6611328 .2877604 .6611328 .26245118 .65478518 .24243164 .64208987 .22241211 .62939456 .20654297 .6101888 .19482422 .58447268 .18375652 .5603841 .17618816 .5289714 .17211914 .49023438 .16805013 .4514974 .16601563 .40901695 .16601563 .36279298 .16601563 .31201173 .16780599 .26953126 .17138672 .23535156 .17496746 .20117188 .18261719 .17057292 .19433594 .14355469 .20507813 .11816406 .22029622 .09879557 .23999024 .08544922 .25968424 .07210287 .28580729 .06542969 .31835938 .06542969 .34895835 .06542969 .37434898 .071777347 .39453126 .084472659 .41471354 .09716797 .43033854 .116373699 .44140626 .14208985Z"/>
<path id="font_1_26" d="M.5854492 0H.46435548L.24560547 .23898316 .18603516 .18229676V0H.09423828V.7597656H.18603516V.27270509L.45117188 .54589846H.56689456L.31347657 .29371644 .5854492 0Z"/>
<path id="font_1_27" d="M.5727539 .61816409 .24365235 0H.13916016L.4892578 .64160159H.07519531V.72753909H.5727539V.61816409Z"/>
<path id="font_1_28" d="M.5649414 .23072815C.5649414 .1968333 .55875656 .16440837 .5463867 .13345337 .5340169 .102498378 .51708987 .076431278 .49560548 .055252077 .47216798 .03244527 .44425456 .014928182 .41186524 .0027008057 .37947593-.009516398 .34195964-.015625 .2993164-.015625 .25960288-.015625 .22135417-.011474609 .18457031-.0031738282 .14778646 .005126953 .11669922 .015136719 .091308597 .026855469V.12988281H.09814453C.12483724 .11282349 .15608724 .09830221 .19189453 .08631897 .22770183 .07434591 .26285807 .068359378 .29736329 .068359378 .32047526 .068359378 .34285484 .071624759 .36450196 .07815552 .38614909 .08468628 .4054362 .09611511 .42236329 .11244202 .4366862 .12649028 .44750978 .14331055 .45483399 .16290283 .4621582 .18249512 .4658203 .20519002 .4658203 .23098755 .4658203 .25613404 .46150718 .2773641 .45288087 .29467774 .44425456 .31199137 .43229167 .3258718 .4169922 .33631898 .4000651 .34872947 .37947593 .35746257 .3552246 .3625183 .3309733 .36758424 .3038737 .3701172 .27392579 .3701172 .24527996 .3701172 .21769206 .36816407 .19116211 .3642578 .16463216 .36035157 .14176433 .3564453 .122558597 .35253907V.72753909H.5600586V.64160159H.21679688V.4482422C.23079427 .44954429 .24511719 .45052085 .25976563 .45117188 .27441407 .4518229 .28710938 .45214845 .29785157 .45214845 .3372396 .45214845 .37174479 .44880677 .4013672 .4421234 .4309896 .43545024 .45817057 .42363993 .48291017 .4066925 .50895187 .38876853 .5291341 .3656311 .54345706 .33728028 .55777999 .30892945 .5649414 .27341209 .5649414 .23072815Z"/>
<path id="font_1_29" d="M.5292969 0H.13574219V.07421875H.28710938V.56152346H.13574219V.6279297C.15625 .6279297 .17822266 .6296387 .20166016 .63305667 .22509766 .6364746 .24283855 .6414388 .2548828 .6479492 .26985679 .6560872 .2816569 .66642257 .2902832 .6789551 .29890953 .6914876 .3038737 .7083333 .30517579 .7294922H.38085938V.07421875H.5292969V0Z"/>
<path id="font_1_30" d="M.5708008 0H.07861328V.10253906C.11279297 .1318868 .14705403 .16123455 .18139649 .19058228 .21573894 .21993001 .24772136 .24911499 .27734376 .2781372 .33984376 .338796 .38264976 .38697816 .40576173 .42268373 .4288737 .45838929 .4404297 .49694825 .4404297 .5383606 .4404297 .5761922 .42797853 .6057841 .40307618 .62713626 .37817384 .64849856 .34342448 .6591797 .29882813 .6591797 .26920573 .6591797 .23714192 .6539714 .20263672 .6435547 .16813152 .633138 .13444011 .6171875 .1015625 .5957031H.09667969V.6979065C.119791667 .70925906 .15063477 .7196401 .18920899 .7290497 .2277832 .7384593 .26513673 .74316409 .30126954 .74316409 .3758138 .74316409 .43424479 .72516378 .4765625 .6891632 .5188802 .6531728 .54003909 .60439047 .54003909 .54281619 .54003909 .5151265 .53653976 .48930869 .529541 .46536256 .5225423 .4414266 .51220706 .41870628 .49853517 .39720155 .48583985 .37700907 .47094728 .35713706 .45385743 .33758546 .43676759 .31804405 .41601563 .29638163 .39160157 .27259828 .35677085 .23839824 .32080079 .20525106 .2836914 .17315674 .24658203 .14107259 .21191406 .11134847 .1796875 .083984378H.5708008V0Z"/>
<path id="font_1_31" d="M.58740237 .20507813H.4794922V0H.3857422V.20507813H.037597658V.3173828L.38964845 .72753909H.4794922V.28320313H.58740237V.20507813M.3857422 .28320313V.6113281L.104003909 .28320313H.3857422Z"/>
<path id="font_1_32" d="M.50683596 .35047914C.52246096 .33644105 .53531906 .31881715 .54541018 .29760743 .5555013 .27640788 .5605469 .2490031 .5605469 .21539307 .5605469 .18210857 .5545247 .15159607 .54248049 .12385559 .5304362 .09612528 .5135091 .0719808 .49169923 .05142212 .46728517 .028584799 .43855796 .011698405 .40551759 .00076293948 .3724772-.0101623539 .33626304-.015625 .296875-.015625 .2565104-.015625 .21679688-.010808309 .17773438-.0011749268 .13867188 .008458455 .10660807 .018992106 .08154297 .030426026V.1328125H.08886719C.11653646 .1142985 .14908855 .09892782 .18652344 .08670044 .22395833 .07447306 .26009117 .068359378 .29492188 .068359378 .3154297 .068359378 .3372396 .0717926 .36035157 .07865906 .38346354 .08553568 .402181 .09568278 .4165039 .10910034 .43147788 .12349447 .44262696 .13935852 .44995118 .1566925 .4572754 .17403667 .4609375 .19596355 .4609375 .22247315 .4609375 .24864705 .4567871 .2703196 .44848634 .28749085 .44018556 .30467225 .42871095 .31817118 .4140625 .32798768 .39941407 .33812968 .3816732 .3450826 .36083985 .34884645 .3400065 .35261027 .31754557 .3544922 .29345704 .3544922H.24951172V.43554688H.2836914C.33317057 .43554688 .37263999 .44592796 .4020996 .46669007 .43155924 .48745219 .44628907 .5177765 .44628907 .55766299 .44628907 .57532247 .44254557 .59076949 .4350586 .6040039 .42757163 .61724856 .41715495 .628123 .4038086 .6366272 .3898112 .6451213 .37483726 .651001 .35888673 .65426638 .3429362 .65754196 .32486979 .6591797 .3046875 .6591797 .27376304 .6591797 .24088542 .6536458 .20605469 .6425781 .17122396 .63151046 .13834636 .61588546 .107421878 .5957031H.10253906V.6974182C.12565105 .70877078 .15649414 .7192332 .19506836 .72880557 .23364258 .73837789 .2709961 .74316409 .3071289 .74316409 .3426107 .74316409 .3738607 .73990377 .4008789 .7333832 .42789714 .7268626 .4523112 .71643069 .4741211 .7020874 .4975586 .6864421 .5152995 .66753646 .52734377 .6453705 .539388 .6232045 .54541018 .597285 .54541018 .5676117 .54541018 .5271962 .53116866 .49190776 .50268557 .46174623 .47420249 .43159486 .44059245 .41260783 .40185548 .40478517V.39794923C.41748048 .39533488 .43538413 .38986717 .4555664 .38154603 .4757487 .37323509 .49283854 .36287944 .50683596 .35047914Z"/>
<path id="font_1_33" d="M.5698242 .4068451C.5698242 .34320579 .56258139 .28544108 .5480957 .23355103 .53361007 .18166097 .51171877 .137441 .48242188 .10089111 .45279948 .063680019 .4156901 .034957887 .37109376 .014724731 .3264974-.005508423 .27408854-.015625 .21386719-.015625 .19694011-.015625 .18098958-.014729817 .16601563-.012939453 .15104167-.011149089 .13769531-.008300781 .12597656-.0043945314V.08886719H.13085938C.14029949 .083984378 .15364583 .0793457 .17089844 .07495117 .18815105 .07055664 .20735677 .068359378 .22851563 .068359378 .30045573 .068359378 .3568522 .09002177 .39770509 .13334656 .43855796 .17667134 .4622396 .23642476 .46875 .3126068 .43847657 .29433695 .4099935 .2812856 .38330079 .27345277 .35660807 .2656301 .32747398 .26171876 .29589845 .26171876 .26595054 .26171876 .2388509 .26465354 .21459961 .27052308 .19034831 .2763926 .16601563 .28781129 .14160156 .30477906 .11295573 .3246765 .09138998 .34995524 .0769043 .38061524 .06241862 .41127525 .05517578 .44796754 .05517578 .49069215 .05517578 .5650635 .079589847 .62556967 .12841797 .6722107 .1772461 .7188619 .2368164 .7421875 .3071289 .7421875 .34228517 .7421875 .37483726 .7367198 .40478517 .7257843 .43473307 .7148488 .4609375 .69845077 .48339845 .67658999 .5110677 .64950057 .53238937 .6146596 .5473633 .57206729 .5623372 .5294749 .5698242 .47440086 .5698242 .4068451M.4711914 .4283142C.4711914 .47853599 .46598307 .5188751 .4555664 .54933169 .44514976 .5797984 .4308268 .6034546 .41259767 .6203003 .3972982 .6348877 .38085938 .64533999 .36328126 .6516571 .34570313 .65797427 .32666017 .6611328 .30615235 .6611328 .25927735 .6611328 .22224935 .6465505 .19506836 .61738589 .16788738 .58822128 .15429688 .547231 .15429688 .49441529 .15429688 .4636332 .1586914 .43852235 .16748047 .41908265 .17626953 .39964295 .19108074 .3826294 .21191406 .368042 .2265625 .3580017 .24267578 .35127769 .2602539 .34786988 .27783204 .34447227 .29736329 .34277345 .31884767 .34277345 .34423829 .34277345 .36995445 .34617616 .3959961 .35298158 .42203776 .359787 .4464518 .3696696 .46923829 .3826294 .4695638 .3894348 .4699707 .39615885 .47045899 .4028015 .47094728 .40944419 .4711914 .4179484 .4711914 .4283142Z"/>
<path id="font_1_34" d="M.69921877 0H.57373049L.3305664 .2890625H.19433594V0H.09765625V.72753909H.30126954C.34521485 .72753909 .38183595 .72468569 .4111328 .7189789 .4404297 .7132823 .46679688 .70309957 .49023438 .6884308 .51660159 .6718089 .53719076 .6508687 .55200198 .62561038 .5668132 .6003621 .57421877 .5683492 .57421877 .52957156 .57421877 .47710166 .56103518 .43318687 .53466799 .39782716 .5083008 .36246745 .47200523 .3358256 .42578126 .3179016L.69921877 0M.47314454 .5223999C.47314454 .54316207 .46948243 .5615692 .4621582 .57762148 .45483399 .5936839 .44270835 .6072286 .42578126 .6182556 .41178385 .6276652 .39518229 .63423159 .37597657 .6379547 .35677085 .64168807 .33414714 .6435547 .30810548 .6435547H.19433594V.3701172H.2919922C.32259117 .3701172 .34928385 .37279258 .3720703 .3781433 .39485679 .38349406 .41422526 .39346824 .43017579 .4080658 .44482423 .4216868 .4556478 .43733726 .46264649 .4550171 .46964518 .47269694 .47314454 .49515788 .47314454 .5223999Z"/>
<path id="font_1_35" d="M.6538086 0H.5571289V.3564453H.19433594V0H.09765625V.72753909H.19433594V.4423828H.5571289V.72753909H.6538086V0Z"/>
<path id="font_1_36" d="M.5620117 .54589846 .24365235-.20117188H.14550781L.24707031 .026519776 .029785157 .54589846H.12939453L.296875 .14160156 .4658203 .54589846H.5620117Z"/>
<path id="font_1_37" d="M.53271487 0H.44091798V.05682373C.41455079 .03397624 .38704429 .016189576 .35839845 .0034637452 .3297526-.009262085 .29866538-.015625 .26513673-.015625 .20003255-.015625 .14835613 .00950114 .11010742 .059753419 .07185873 .11001587 .052734376 .17969258 .052734376 .26878358 .052734376 .3151296 .059326173 .3564148 .072509769 .39263917 .08569336 .42886354 .103515628 .45970155 .12597656 .4851532 .14811199 .5099538 .1739095 .5288798 .20336914 .54193118 .23282878 .5549927 .26334635 .56152346 .29492188 .56152346 .32356773 .56152346 .34895835 .5585022 .37109376 .5524597 .39322917 .5464274 .4165039 .53704836 .44091798 .5243225V.7597656H.53271487V0M.44091798 .13427735V.44726563C.41617839 .45833335 .39404298 .46598307 .37451173 .47021485 .35498048 .47444663 .33365885 .4765625 .31054688 .4765625 .2591146 .4765625 .21907552 .45865885 .19042969 .42285157 .16178386 .38704429 .14746094 .33626304 .14746094 .2705078 .14746094 .20572917 .15852864 .15649414 .18066406 .122802738 .20279949 .08911133 .23828125 .072265628 .28710938 .072265628 .31315104 .072265628 .33951823 .07804362 .36621095 .08959961 .39290367 .1011556 .417806 .11604818 .44091798 .13427735Z"/>
<path id="font_1_38" d="M.37939454 .27441407H.07470703V.3623047H.37939454V.27441407Z"/>
<path id="font_1_39" d="M.5463867 0H.45458985V.3108673C.45458985 .33596293 .453125 .35950724 .4501953 .38150025 .44726563 .40349327 .44189454 .42067973 .43408204 .4330597 .425944 .44675193 .41422526 .4569346 .39892579 .4636078 .3836263 .47029115 .36376954 .4736328 .33935548 .4736328 .31429038 .4736328 .28808595 .46743775 .2607422 .4550476 .23339844 .44266764 .20719402 .42686973 .1821289 .4076538V0H.09033203V.54589846H.1821289V.4857025C.21077474 .5095062 .24039714 .52809146 .2709961 .54145815 .30159507 .554835 .3330078 .56152346 .36523438 .56152346 .42415367 .56152346 .46907554 .543752 .5 .5082092 .5309245 .4726664 .5463867 .4214681 .5463867 .35461427V0Z"/>
<path id="font_1_40" d="M.5620117 .54589846 .3413086 0H.24902344L.029785157 .54589846H.12939453L.29833985 .11143494 .4658203 .54589846H.5620117Z"/>
<path id="font_1_41" d="M.61621096 .64160159H.3564453V0H.25976563V.64160159H0V.72753909H.61621096V.64160159Z"/>
<path id="font_1_42" d="M.64501956 .29190064C.64501956 .23910523 .6392415 .19306946 .62768557 .15379334 .6161296 .11451721 .59716799 .081837978 .5708008 .055755617 .54573568 .030985514 .5164388 .012893677 .48291017 .0014801025 .4493815-.009923299 .410319-.015625 .36572267-.015625 .32014976-.015625 .2804362-.009597778 .24658203 .002456665 .21272786 .014521281 .1842448 .032287599 .16113281 .055755617 .13476563 .08248901 .11580404 .114756267 .10424805 .15255738 .092692058 .19036865 .08691406 .2368164 .08691406 .29190064V.72753909H.18359375V.28759767C.18359375 .24820964 .1862793 .21712239 .19165039 .19433594 .19702149 .17154949 .20605469 .1508789 .21875 .13232422 .23307292 .11116537 .2525228 .095214847 .2770996 .084472659 .30167643 .07373047 .33121745 .068359378 .36572267 .068359378 .40055339 .068359378 .43017579 .073649089 .45458985 .084228519 .4790039 .094807948 .49853517 .110839847 .5131836 .13232422 .5258789 .1508789 .5349121 .17211914 .5402832 .19604492 .5456543 .2199707 .54833987 .24967449 .54833987 .28515626V.72753909H.64501956V.29190064Z"/>
<path id="font_1_43" d="M.67089846 0H.5678711L.49658204 .20214844H.1821289L.110839847 0H.0126953129L.27734376 .72753909H.40625L.67089846 0M.46679688 .2861328 .33935548 .6430054 .21142578 .2861328H.46679688Z"/>
<path id="font_1_44" d="M.57666018 0H.09765625V.72753909H.57666018V.64160159H.19433594V.4423828H.57666018V.3564453H.19433594V.0859375H.57666018V0Z"/>
<path id="font_1_45" d="M.5620117 .64160159H.19433594V.43652345H.5102539V.35058595H.19433594V0H.09765625V.72753909H.5620117V.64160159Z"/>
<path id="font_1_46" d="M.53271487 .06187439C.53271487-.030695597 .51171877-.09865316 .46972657-.14199829 .42773438-.18535359 .3631185-.20703125 .2758789-.20703125 .24690755-.20703125 .21866863-.20499675 .19116211-.20092774 .1636556-.19685872 .13655599-.19108074 .10986328-.18359375V-.08984375H.114746097C.12972005-.09562174 .15348308-.102762859 .18603516-.11126709 .21858724-.119771327 .2511393-.12402344 .2836914-.12402344 .3149414-.12402344 .3408203-.120285037 .36132813-.11280823 .38183595-.10533142 .39778648-.0949351 .4091797-.08161926 .4205729-.0689443 .42871095-.05366516 .43359376-.03578186 .43847657-.017908732 .44091798 .0020751954 .44091798 .024169922V.073898319C.4132487 .051701864 .38680015 .035135908 .36157228 .02420044 .3363444 .0132751469 .30419923 .0078125 .26513673 .0078125 .20003255 .0078125 .14835613 .031392415 .11010742 .078552249 .07185873 .12572225 .052734376 .19222515 .052734376 .2780609 .052734376 .32505799 .059326173 .36561076 .072509769 .39971925 .08569336 .43382774 .10367838 .46328227 .12646485 .4880829 .1476237 .5112559 .17333985 .5292867 .20361328 .5421753 .23388672 .55507406 .2639974 .56152346 .2939453 .56152346 .32552085 .56152346 .3519694 .5583394 .37329103 .55197146 .39461265 .5456136 .41715495 .53590396 .44091798 .5228424L.44677735 .54589846H.53271487V.06187439M.44091798 .14955139V.4476776C.4165039 .45877586 .39379884 .46669007 .37280274 .4714203 .35180665 .4761505 .33089195 .47851563 .3100586 .47851563 .25960288 .47851563 .21988933 .46154277 .19091797 .42759706 .16194661 .3936615 .14746094 .34438578 .14746094 .2797699 .14746094 .21841939 .15820313 .1719157 .1796875 .14025879 .20117188 .10860189 .2368164 .09277344 .2866211 .09277344 .3133138 .09277344 .3400879 .09791056 .36694337 .108184818 .39379884 .11846924 .41845704 .1322581 .44091798 .14955139Z"/>
<path id="font_1_47" d="M.63964846 .6443329C.6692708 .6117198 .6919759 .57176718 .7077637 .5244751 .72355148 .477183 .7314453 .4235331 .7314453 .3635254 .7314453 .30351768 .7233887 .24978638 .7072754 .20233155 .6911621 .15487671 .6686198 .11533102 .63964846 .08369446 .6097005 .050745649 .5743001 .0259552 .53344729 .00932312 .4925944-.00730896 .44596354-.015625 .3935547-.015625 .3424479-.015625 .29597984-.0071461999 .2541504 .009811401 .21232097 .026769003 .17675781 .051396688 .14746094 .08369446 .11816406 .115982059 .09562174 .15560913 .079833988 .20257569 .06404623 .24954224 .056152345 .30319215 .056152345 .3635254 .056152345 .42288209 .063964847 .4761251 .079589847 .5232544 .095214847 .5703837 .118001308 .6107432 .14794922 .6443329 .17659505 .6763051 .2121582 .7007701 .25463868 .71772769 .29711915 .73468527 .34342448 .74316409 .3935547 .74316409 .44563804 .74316409 .49243165 .7345988 .53393557 .71746829 .57543948 .7003479 .61067709 .6759694 .63964846 .6443329M.6308594 .3635254C.6308594 .4580078 .6097005 .5309041 .5673828 .58221438 .5250651 .6335246 .46728517 .6591797 .39404298 .6591797 .32014976 .6591797 .26212565 .6335246 .2199707 .58221438 .17781575 .5309041 .15673828 .4580078 .15673828 .3635254 .15673828 .2680664 .17822266 .19500733 .2211914 .14434815 .26416017 .093688968 .32177735 .068359378 .39404298 .068359378 .4663086 .068359378 .5238444 .093688968 .5666504 .14434815 .60945639 .19500733 .6308594 .2680664 .6308594 .3635254Z"/>
<path id="font_1_48" d="M.5463867 0H.45458985V.3108673C.45458985 .33596293 .453125 .35950724 .4501953 .38150025 .44726563 .40349327 .44189454 .42067973 .43408204 .4330597 .425944 .44675193 .41422526 .4569346 .39892579 .4636078 .3836263 .47029115 .36376954 .4736328 .33935548 .4736328 .31429038 .4736328 .28808595 .46743775 .2607422 .4550476 .23339844 .44266764 .20719402 .42686973 .1821289 .4076538V0H.09033203V.7597656H.1821289V.4857025C.21077474 .5095062 .24039714 .52809146 .2709961 .54145815 .30159507 .554835 .3330078 .56152346 .36523438 .56152346 .42415367 .56152346 .46907554 .543752 .5 .5082092 .5309245 .4726664 .5463867 .4214681 .5463867 .35461427V0Z"/>
<path id="font_1_49" d="M.67089846 .72753909 .40625 0H.27734376L.0126953129 .72753909H.11621094L.34423829 .08746338 .5722656 .72753909H.67089846Z"/>
<path id="font_1_50" d="M.5576172 0H.09765625V.72753909H.19433594V.0859375H.5576172V0Z"/>
<path id="font_1_51" d="M.6459961 .22357178C.6459961 .18744914 .63916018 .15555828 .6254883 .12789917 .6118164 .100240077 .5934245 .0774587 .5703125 .059555055 .54296877 .038080854 .51293948 .022786459 .4802246 .013671875 .44750978 .0045572917 .40592448 0 .35546876 0H.09765625V.72753909H.31298829C.3660482 .72753909 .40576173 .7255809 .4321289 .7216644 .4584961 .7177582 .48372398 .70961 .5078125 .69721987 .5345052 .6832021 .5538737 .6651866 .56591799 .6431732 .5779622 .62117007 .5839844 .59484359 .5839844 .5641937 .5839844 .52963766 .5751953 .5002136 .5576172 .47592164 .54003909 .45162965 .51660159 .43211366 .4873047 .41737367V.4134674C.5364583 .40337626 .5751953 .38181559 .6035156 .3487854 .63183596 .31575523 .6459961 .27401734 .6459961 .22357178M.48339845 .5507202C.48339845 .568217 .48046876 .58295699 .47460938 .5949402 .46875 .6069336 .4593099 .6166585 .44628907 .624115 .4309896 .63286337 .4124349 .6382904 .390625 .6403961 .3688151 .64250186 .34179688 .6435547 .3095703 .6435547H.19433594V.4345703H.31933595C.34960938 .4345703 .3736979 .43610636 .39160157 .43917848 .40950523 .44226075 .42610679 .44866435 .44140626 .45838929 .45670573 .46810404 .4675293 .48065696 .47387696 .49604798 .4802246 .511439 .48339845 .5296631 .48339845 .5507202M.54541018 .22019959C.54541018 .24928284 .5410156 .27238975 .53222659 .28952027 .5234375 .3066508 .507487 .3211924 .484375 .33314515 .46875 .34122215 .44978843 .34647117 .42749024 .3488922 .40519206 .35132347 .37809245 .35253907 .3461914 .35253907H.19433594V.083984378H.32226563C.36458335 .083984378 .3992513 .08616638 .42626954 .090530399 .45328776 .09489441 .4754232 .102890018 .49267579 .11451721 .51090499 .12712097 .5242513 .14149983 .53271487 .15765381 .5411784 .17381795 .54541018 .19466655 .54541018 .22019959Z"/>
<path id="font_1_52" d="M.7763672 .54589846 .63427737 0H.5493164L.4091797 .42079164 .27001954 0H.18554688L.041992189 .54589846H.13769531L.23779297 .12315369 .37402345 .54589846H.44970704L.58935549 .12315369 .68408206 .54589846H.7763672Z"/>
</defs>
<g>
<path d="M124.652 72.309H224.14V128.446H124.652Z" fill="#009ff8" fill-opacity=".25"/>
<path transform="matrix(.999317,0,0,1,0,0)" d="M139.634 91.074H220.259V124.425998H139.634Z" fill="#ffffff"/>
<path transform="matrix(.999317,0,0,1,0,0)" stroke-width="1.09255" stroke-linecap="round" stroke-linejoin="round" fill="none" stroke="#898989" d="M139.634 91.074H220.259V124.425998H139.634Z"/>
<path d="M25.168 72.309H124.652V128.446H25.168Z" fill="#f8007e" fill-opacity=".25"/>
<path d="M124.652 16.172H224.14V72.309009H124.652Z" fill="#aef800" fill-opacity=".25"/>
<path d="M25.168 16.172H124.652V72.309009H25.168Z" fill="#08f800" fill-opacity=".247104"/>
<path transform="matrix(.999317,0,0,1,0,0)" stroke-width=".752591" stroke-linecap="butt" stroke-miterlimit="4" stroke-linejoin="miter" fill="none" stroke="#000000" d="M25.021 2.672V158.02H251.5"/>
<path transform="matrix(0,-1,.999317,0,0,0)" d="M-.5 25.021-3.758 26.901V23.137ZM-.5 25.021" fill-rule="evenodd"/>
<path transform="matrix(0,-1,.999317,0,0,0)" stroke-width=".501727" stroke-linecap="butt" stroke-miterlimit="4" stroke-linejoin="miter" fill="none" stroke="#000000" d="M-.5 25.021-3.758 26.901V23.137ZM-.5 25.021"/>
<path transform="matrix(.999317,0,0,1,0,0)" d="M253.673 158.02 250.417 159.902V156.137ZM253.673 158.02" fill-rule="evenodd"/>
<path transform="matrix(.999317,0,0,1,0,0)" stroke-width=".501727" stroke-linecap="butt" stroke-miterlimit="4" stroke-linejoin="miter" fill="none" stroke="#000000" d="M253.673 158.02 250.417 159.902V156.137ZM253.673 158.02"/>
<use data-text="P" xlink:href="#font_1_1" transform="matrix(0,-8.027644,-8.02216,0,5.938279,113.52848)"/>
<use data-text="D" xlink:href="#font_1_2" transform="matrix(0,-8.027644,-8.02216,0,5.938279,108.68781)"/>
<use data-text="M" xlink:href="#font_1_3" transform="matrix(0,-8.027644,-8.02216,0,5.938279,102.4985)"/>
<use data-text=" " xlink:href="#font_1_4" transform="matrix(0,-8.027644,-8.02216,0,5.938279,95.73119)"/>
<use data-text="S" xlink:href="#font_1_5" transform="matrix(0,-8.027644,-8.02216,0,5.938279,92.905467)"/>
<use data-text="c" xlink:href="#font_1_6" transform="matrix(0,-8.027644,-8.02216,0,5.938279,87.41456)"/>
<use data-text="o" xlink:href="#font_1_7" transform="matrix(0,-8.027644,-8.02216,0,5.938279,83.232158)"/>
<use data-text="r" xlink:href="#font_1_8" transform="matrix(0,-8.027644,-8.02216,0,5.938279,78.359378)"/>
<use data-text="e" xlink:href="#font_1_9" transform="matrix(0,-8.027644,-8.02216,0,5.938279,74.93157)"/>
<use data-text="D" xlink:href="#font_1_2" transform="matrix(8.02216,0,0,-8.027644,59.367105,182.38506)"/>
<use data-text="a" xlink:href="#font_1_10" transform="matrix(8.02216,0,0,-8.027644,65.552188,182.38506)"/>
<use data-text="t" xlink:href="#font_1_11" transform="matrix(8.02216,0,0,-8.027644,70.373508,182.38506)"/>
<use data-text="a" xlink:href="#font_1_10" transform="matrix(8.02216,0,0,-8.027644,73.53423,182.38506)"/>
<use data-text="s" xlink:href="#font_1_12" transform="matrix(8.02216,0,0,-8.027644,78.35555,182.38506)"/>
<use data-text="e" xlink:href="#font_1_9" transform="matrix(8.02216,0,0,-8.027644,82.535099,182.38506)"/>
<use data-text="t" xlink:href="#font_1_11" transform="matrix(8.02216,0,0,-8.027644,87.3163,182.38506)"/>
<use data-text=" " xlink:href="#font_1_4" transform="matrix(8.02216,0,0,-8.027644,90.47703,182.38506)"/>
<use data-text="S" xlink:href="#font_1_5" transform="matrix(8.02216,0,0,-8.027644,93.30083,182.38506)"/>
<use data-text="i" xlink:href="#font_1_13" transform="matrix(8.02216,0,0,-8.027644,98.78799,182.38506)"/>
<use data-text="z" xlink:href="#font_1_14" transform="matrix(8.02216,0,0,-8.027644,100.98606,182.38506)"/>
<use data-text="e" xlink:href="#font_1_9" transform="matrix(8.02216,0,0,-8.027644,105.14956,182.38506)"/>
<use data-text=" " xlink:href="#font_1_4" transform="matrix(8.02216,0,0,-8.027644,109.93076,182.38506)"/>
<use data-text="(" xlink:href="#font_1_15" transform="matrix(8.02216,0,0,-8.027644,112.75456,182.38506)"/>
<use data-text="N" xlink:href="#font_1_16" transform="matrix(8.02216,0,0,-8.027644,116.39662,182.38506)"/>
<use data-text="u" xlink:href="#font_1_17" transform="matrix(8.02216,0,0,-8.027644,122.397197,182.38506)"/>
<use data-text="m" xlink:href="#font_1_18" transform="matrix(8.02216,0,0,-8.027644,127.47522,182.38506)"/>
<use data-text="b" xlink:href="#font_1_19" transform="matrix(8.02216,0,0,-8.027644,135.28078,182.38506)"/>
<use data-text="e" xlink:href="#font_1_9" transform="matrix(8.02216,0,0,-8.027644,140.27858,182.38506)"/>
<use data-text="r" xlink:href="#font_1_8" transform="matrix(8.02216,0,0,-8.027644,145.05979,182.38506)"/>
<use data-text=" " xlink:href="#font_1_4" transform="matrix(8.02216,0,0,-8.027644,148.48525,182.38506)"/>
<use data-text="o" xlink:href="#font_1_7" transform="matrix(8.02216,0,0,-8.027644,151.30905,182.38506)"/>
<use data-text="f" xlink:href="#font_1_20" transform="matrix(8.02216,0,0,-8.027644,156.1785,182.38506)"/>
<use data-text=" " xlink:href="#font_1_4" transform="matrix(8.02216,0,0,-8.027644,159.0023,182.38506)"/>
<use data-text="S" xlink:href="#font_1_5" transform="matrix(8.02216,0,0,-8.027644,161.82611,182.38506)"/>
<use data-text="a" xlink:href="#font_1_10" transform="matrix(8.02216,0,0,-8.027644,167.31327,182.38506)"/>
<use data-text="m" xlink:href="#font_1_18" transform="matrix(8.02216,0,0,-8.027644,172.13459,182.38506)"/>
<use data-text="p" xlink:href="#font_1_21" transform="matrix(8.02216,0,0,-8.027644,179.94014,182.38506)"/>
<use data-text="l" xlink:href="#font_1_22" transform="matrix(8.02216,0,0,-8.027644,184.93795,182.38506)"/>
<use data-text="e" xlink:href="#font_1_9" transform="matrix(8.02216,0,0,-8.027644,187.13602,182.38506)"/>
<use data-text="s" xlink:href="#font_1_12" transform="matrix(8.02216,0,0,-8.027644,191.91722,182.38506)"/>
<use data-text=")" xlink:href="#font_1_23" transform="matrix(8.02216,0,0,-8.027644,196.09677,182.38506)"/>
<path transform="matrix(.999317,0,0,1,0,0)" stroke-width=".752591" stroke-linecap="butt" stroke-miterlimit="4" stroke-linejoin="miter" fill="none" stroke="#000000" d="M39.242 155.176V160.863"/>
<path transform="matrix(.999317,0,0,1,0,0)" stroke-width=".752591" stroke-linecap="butt" stroke-miterlimit="4" stroke-linejoin="miter" fill="none" stroke="#000000" d="M67.687 155.176V160.863"/>
<path transform="matrix(.999317,0,0,1,0,0)" stroke-width=".752591" stroke-linecap="butt" stroke-miterlimit="4" stroke-linejoin="miter" fill="none" stroke="#000000" d="M96.132 155.176V160.863"/>
<path transform="matrix(.999317,0,0,1,0,0)" stroke-width=".752591" stroke-linecap="butt" stroke-miterlimit="4" stroke-linejoin="miter" fill="none" stroke="#000000" d="M124.577 155.176V160.863"/>
<path transform="matrix(.999317,0,0,1,0,0)" stroke-width=".752591" stroke-linecap="butt" stroke-miterlimit="4" stroke-linejoin="miter" fill="none" stroke="#000000" d="M153.019 155.176V160.863"/>
<path transform="matrix(.999317,0,0,1,0,0)" stroke-width=".752591" stroke-linecap="butt" stroke-miterlimit="4" stroke-linejoin="miter" fill="none" stroke="#000000" d="M181.464 155.176V160.863"/>
<path transform="matrix(.999317,0,0,1,0,0)" stroke-width=".752591" stroke-linecap="butt" stroke-miterlimit="4" stroke-linejoin="miter" fill="none" stroke="#000000" d="M209.909 155.176V160.863"/>
<path transform="matrix(.999317,0,0,1,0,0)" stroke-width=".752591" stroke-linecap="butt" stroke-miterlimit="4" stroke-linejoin="miter" fill="none" stroke="#000000" d="M238.354 155.176V160.863"/>
<path transform="matrix(.999317,0,0,1,0,0)" stroke-width=".752591" stroke-linecap="butt" stroke-miterlimit="4" stroke-linejoin="miter" fill="none" stroke="#000000" d="M22.175 143.797H27.863"/>
<path transform="matrix(.999317,0,0,1,0,0)" stroke-width=".752591" stroke-linecap="butt" stroke-miterlimit="4" stroke-linejoin="miter" fill="none" stroke="#000000" d="M22.175 129.574H27.863"/>
<path transform="matrix(.999317,0,0,1,0,0)" stroke-width=".752591" stroke-linecap="butt" stroke-miterlimit="4" stroke-linejoin="miter" fill="none" stroke="#000000" d="M22.175 115.352H27.863"/>
<path transform="matrix(.999317,0,0,1,0,0)" stroke-width=".752591" stroke-linecap="butt" stroke-miterlimit="4" stroke-linejoin="miter" fill="none" stroke="#000000" d="M22.175 101.129H27.863"/>
<path transform="matrix(.999317,0,0,1,0,0)" stroke-width=".752591" stroke-linecap="butt" stroke-miterlimit="4" stroke-linejoin="miter" fill="none" stroke="#000000" d="M22.175 86.91H27.863"/>
<path transform="matrix(.999317,0,0,1,0,0)" stroke-width=".752591" stroke-linecap="butt" stroke-miterlimit="4" stroke-linejoin="miter" fill="none" stroke="#000000" d="M22.175 72.688H27.863"/>
<path transform="matrix(.999317,0,0,1,0,0)" stroke-width=".752591" stroke-linecap="butt" stroke-miterlimit="4" stroke-linejoin="miter" fill="none" stroke="#000000" d="M22.175 58.465H27.863"/>
<path transform="matrix(.999317,0,0,1,0,0)" stroke-width=".752591" stroke-linecap="butt" stroke-miterlimit="4" stroke-linejoin="miter" fill="none" stroke="#000000" d="M22.175 44.242H27.863"/>
<path transform="matrix(.999317,0,0,1,0,0)" stroke-width=".752591" stroke-linecap="butt" stroke-miterlimit="4" stroke-linejoin="miter" fill="none" stroke="#000000" d="M22.175 30.02H27.863"/>
<path transform="matrix(.999317,0,0,1,0,0)" stroke-width=".752591" stroke-linecap="butt" stroke-miterlimit="4" stroke-linejoin="miter" fill="none" stroke="#000000" d="M22.175 15.797H27.863"/>
<use data-text="8" xlink:href="#font_1_24" transform="matrix(6.016634,0,0,-6.020746,33.220785,168.65505)"/>
<use data-text="0" xlink:href="#font_1_25" transform="matrix(6.016634,0,0,-6.020746,37.047365,168.65505)"/>
<use data-text="k" xlink:href="#font_1_26" transform="matrix(6.016634,0,0,-6.020746,40.873945,168.65505)"/>
<use data-text="7" xlink:href="#font_1_27" transform="matrix(6.016634,0,0,-6.020746,12.721136,146.92829)"/>
<use data-text="5" xlink:href="#font_1_28" transform="matrix(6.016634,0,0,-6.020746,16.547717,146.92829)"/>
<use data-text="7" xlink:href="#font_1_27" transform="matrix(6.016634,0,0,-6.020746,12.690287,132.85308)"/>
<use data-text="7" xlink:href="#font_1_27" transform="matrix(6.016634,0,0,-6.020746,16.516867,132.85308)"/>
<use data-text="1" xlink:href="#font_1_29" transform="matrix(6.016634,0,0,-6.020746,62.34131,168.65505)"/>
<use data-text="0" xlink:href="#font_1_25" transform="matrix(6.016634,0,0,-6.020746,66.167888,168.65505)"/>
<use data-text="0" xlink:href="#font_1_25" transform="matrix(6.016634,0,0,-6.020746,69.99446,168.65505)"/>
<use data-text="k" xlink:href="#font_1_26" transform="matrix(6.016634,0,0,-6.020746,73.82104,168.65505)"/>
<use data-text="1" xlink:href="#font_1_29" transform="matrix(6.016634,0,0,-6.020746,90.313159,168.7934)"/>
<use data-text="2" xlink:href="#font_1_30" transform="matrix(6.016634,0,0,-6.020746,94.13973,168.7934)"/>
<use data-text="0" xlink:href="#font_1_25" transform="matrix(6.016634,0,0,-6.020746,97.96631,168.7934)"/>
<use data-text="k" xlink:href="#font_1_26" transform="matrix(6.016634,0,0,-6.020746,101.792888,168.7934)"/>
<use data-text="1" xlink:href="#font_1_29" transform="matrix(6.016634,0,0,-6.020746,116.58778,168.7934)"/>
<use data-text="4" xlink:href="#font_1_31" transform="matrix(6.016634,0,0,-6.020746,120.41436,168.7934)"/>
<use data-text="0" xlink:href="#font_1_25" transform="matrix(6.016634,0,0,-6.020746,124.24094,168.7934)"/>
<use data-text="k" xlink:href="#font_1_26" transform="matrix(6.016634,0,0,-6.020746,128.06752,168.7934)"/>
<use data-text="2" xlink:href="#font_1_30" transform="matrix(6.016634,0,0,-6.020746,145.02239,168.7934)"/>
<use data-text="2" xlink:href="#font_1_30" transform="matrix(6.016634,0,0,-6.020746,148.84897,168.7934)"/>
<use data-text="0" xlink:href="#font_1_25" transform="matrix(6.016634,0,0,-6.020746,152.67555,168.7934)"/>
<use data-text="k" xlink:href="#font_1_26" transform="matrix(6.016634,0,0,-6.020746,156.50214,168.7934)"/>
<use data-text="2" xlink:href="#font_1_30" transform="matrix(6.016634,0,0,-6.020746,173.62548,168.7934)"/>
<use data-text="4" xlink:href="#font_1_31" transform="matrix(6.016634,0,0,-6.020746,177.45206,168.7934)"/>
<use data-text="0" xlink:href="#font_1_25" transform="matrix(6.016634,0,0,-6.020746,181.27864,168.7934)"/>
<use data-text="k" xlink:href="#font_1_26" transform="matrix(6.016634,0,0,-6.020746,185.10523,168.7934)"/>
<use data-text="3" xlink:href="#font_1_32" transform="matrix(6.016634,0,0,-6.020746,202.03014,168.74764)"/>
<use data-text="1" xlink:href="#font_1_29" transform="matrix(6.016634,0,0,-6.020746,205.85672,168.74764)"/>
<use data-text="0" xlink:href="#font_1_25" transform="matrix(6.016634,0,0,-6.020746,209.6833,168.74764)"/>
<use data-text="0" xlink:href="#font_1_25" transform="matrix(6.016634,0,0,-6.020746,213.50989,168.74764)"/>
<use data-text="k" xlink:href="#font_1_26" transform="matrix(6.016634,0,0,-6.020746,217.33647,168.74764)"/>
<use data-text="3" xlink:href="#font_1_32" transform="matrix(6.016634,0,0,-6.020746,230.46477,168.74764)"/>
<use data-text="1" xlink:href="#font_1_29" transform="matrix(6.016634,0,0,-6.020746,234.29135,168.74764)"/>
<use data-text="2" xlink:href="#font_1_30" transform="matrix(6.016634,0,0,-6.020746,238.11794,168.74764)"/>
<use data-text="0" xlink:href="#font_1_25" transform="matrix(6.016634,0,0,-6.020746,241.94452,168.74764)"/>
<use data-text="k" xlink:href="#font_1_26" transform="matrix(6.016634,0,0,-6.020746,245.7711,168.74764)"/>
<path d="M193.539 151.641H198.746V163.25H193.539Z" fill="#ffffff"/>
<path transform="matrix(.999317,0,0,1,0,0)" d="M196.892 152.02 191.201 163.398" fill="#ffffff"/>
<path transform="matrix(.999317,0,0,1,0,0)" stroke-width=".752591" stroke-linecap="round" stroke-linejoin="round" fill="none" stroke="#000000" d="M196.892 152.02 191.201 163.398"/>
<path transform="matrix(.999317,0,0,1,0,0)" d="M201.669 151.871 195.978 163.25" fill="#ffffff"/>
<path transform="matrix(.999317,0,0,1,0,0)" stroke-width=".752591" stroke-linecap="round" stroke-linejoin="round" fill="none" stroke="#000000" d="M201.669 151.871 195.978 163.25"/>
<path d="M136.152 151.758H141.359V163.36699H136.152Z" fill="#ffffff"/>
<path transform="matrix(.999317,0,0,1,0,0)" d="M139.466 152.133 133.779 163.512" fill="#ffffff"/>
<path transform="matrix(.999317,0,0,1,0,0)" stroke-width=".752591" stroke-linecap="round" stroke-linejoin="round" fill="none" stroke="#000000" d="M139.466 152.133 133.779 163.512"/>
<path transform="matrix(.999317,0,0,1,0,0)" d="M144.243 151.988 138.552 163.367" fill="#ffffff"/>
<path transform="matrix(.999317,0,0,1,0,0)" stroke-width=".752591" stroke-linecap="round" stroke-linejoin="round" fill="none" stroke="#000000" d="M144.243 151.988 138.552 163.367"/>
<use data-text="7" xlink:href="#font_1_27" transform="matrix(6.016634,0,0,-6.020746,12.659444,118.51619)"/>
<use data-text="9" xlink:href="#font_1_33" transform="matrix(6.016634,0,0,-6.020746,16.486023,118.51619)"/>
<use data-text="8" xlink:href="#font_1_24" transform="matrix(6.016634,0,0,-6.020746,12.868027,104.58652)"/>
<use data-text="1" xlink:href="#font_1_29" transform="matrix(6.016634,0,0,-6.020746,16.694607,104.58652)"/>
<use data-text="8" xlink:href="#font_1_24" transform="matrix(6.016634,0,0,-6.020746,12.735838,90.14532)"/>
<use data-text="3" xlink:href="#font_1_32" transform="matrix(6.016634,0,0,-6.020746,16.562418,90.14532)"/>
<use data-text="8" xlink:href="#font_1_24" transform="matrix(6.016634,0,0,-6.020746,12.760812,76.03482)"/>
<use data-text="5" xlink:href="#font_1_28" transform="matrix(6.016634,0,0,-6.020746,16.58739,76.03482)"/>
<use data-text="8" xlink:href="#font_1_24" transform="matrix(6.016634,0,0,-6.020746,12.699116,61.664125)"/>
<use data-text="7" xlink:href="#font_1_27" transform="matrix(6.016634,0,0,-6.020746,16.525696,61.664125)"/>
<use data-text="8" xlink:href="#font_1_24" transform="matrix(6.016634,0,0,-6.020746,12.746121,47.57568)"/>
<use data-text="9" xlink:href="#font_1_33" transform="matrix(6.016634,0,0,-6.020746,16.5727,47.57568)"/>
<use data-text="9" xlink:href="#font_1_33" transform="matrix(6.016634,0,0,-6.020746,12.879792,33.273614)"/>
<use data-text="1" xlink:href="#font_1_29" transform="matrix(6.016634,0,0,-6.020746,16.706372,33.273614)"/>
<use data-text="9" xlink:href="#font_1_33" transform="matrix(6.013703,-.187895,-.187766,-6.017814,12.895537,19.197308)"/>
<use data-text="3" xlink:href="#font_1_32" transform="matrix(6.013703,-.187895,-.187766,-6.017814,16.720253,19.077807)"/>
<use data-text="N" xlink:href="#font_1_16" transform="matrix(6.016634,0,0,-6.020746,39.29559,63.227487)"/>
<use data-text="o" xlink:href="#font_1_7" transform="matrix(6.016634,0,0,-6.020746,43.796033,63.227487)"/>
<use data-text="R" xlink:href="#font_1_34" transform="matrix(6.016634,0,0,-6.020746,47.448129,63.227487)"/>
<use data-text="D" xlink:href="#font_1_2" transform="matrix(6.016634,0,0,-6.020746,51.62969,63.227487)"/>
<use data-text="H" xlink:href="#font_1_35" transform="matrix(6.016634,0,0,-6.020746,59.193094,56.418527)"/>
<use data-text="y" xlink:href="#font_1_36" transform="matrix(6.016634,0,0,-6.020746,63.711587,56.418527)"/>
<use data-text="d" xlink:href="#font_1_37" transform="matrix(6.016634,0,0,-6.020746,67.24335,56.418527)"/>
<use data-text="r" xlink:href="#font_1_8" transform="matrix(6.016634,0,0,-6.020746,70.99171,56.418527)"/>
<use data-text="a" xlink:href="#font_1_10" transform="matrix(6.016634,0,0,-6.020746,73.45853,56.418527)"/>
<use data-text="-" xlink:href="#font_1_38" transform="matrix(6.016634,0,0,-6.020746,77.074527,56.418527)"/>
<use data-text="M" xlink:href="#font_1_3" transform="matrix(6.016634,0,0,-6.020746,79.806079,56.418527)"/>
<use data-text="D" xlink:href="#font_1_2" transform="matrix(6.016634,0,0,-6.020746,84.8781,56.418527)"/>
<use data-text="P" xlink:href="#font_1_1" transform="matrix(6.016634,0,0,-6.020746,89.51692,56.418527)"/>
<use data-text="D" xlink:href="#font_1_2" transform="matrix(6.016634,0,0,-6.020746,101.83059,60.141637)"/>
<use data-text="i" xlink:href="#font_1_13" transform="matrix(6.016634,0,0,-6.020746,106.46941,60.141637)"/>
<use data-text="f" xlink:href="#font_1_20" transform="matrix(6.016634,0,0,-6.020746,108.11797,60.141637)"/>
<use data-text="f" xlink:href="#font_1_20" transform="matrix(6.016634,0,0,-6.020746,110.23583,60.141637)"/>
<use data-text="u" xlink:href="#font_1_17" transform="matrix(6.016634,0,0,-6.020746,112.35369,60.141637)"/>
<use data-text="s" xlink:href="#font_1_12" transform="matrix(6.016634,0,0,-6.020746,116.162227,60.141637)"/>
<use data-text="i" xlink:href="#font_1_13" transform="matrix(6.016634,0,0,-6.020746,119.29689,60.141637)"/>
<use data-text="o" xlink:href="#font_1_7" transform="matrix(6.016634,0,0,-6.020746,120.94545,60.141637)"/>
<use data-text="n" xlink:href="#font_1_39" transform="matrix(6.016634,0,0,-6.020746,124.59755,60.141637)"/>
<use data-text="D" xlink:href="#font_1_2" transform="matrix(6.016634,0,0,-6.020746,128.40608,60.141637)"/>
<use data-text="r" xlink:href="#font_1_8" transform="matrix(6.016634,0,0,-6.020746,133.0449,60.141637)"/>
<use data-text="i" xlink:href="#font_1_13" transform="matrix(6.016634,0,0,-6.020746,135.61402,60.141637)"/>
<use data-text="v" xlink:href="#font_1_40" transform="matrix(6.016634,0,0,-6.020746,137.26258,60.141637)"/>
<use data-text="e" xlink:href="#font_1_9" transform="matrix(6.016634,0,0,-6.020746,140.77027,60.141637)"/>
<use data-text="T" xlink:href="#font_1_41" transform="matrix(6.016634,0,0,-6.020746,37.040658,80.29414)"/>
<use data-text="r" xlink:href="#font_1_8" transform="matrix(6.016634,0,0,-6.020746,40.157274,80.29414)"/>
<use data-text="a" xlink:href="#font_1_10" transform="matrix(6.016634,0,0,-6.020746,42.624094,80.29414)"/>
<use data-text="n" xlink:href="#font_1_39" transform="matrix(6.016634,0,0,-6.020746,46.24009,80.29414)"/>
<use data-text="s" xlink:href="#font_1_12" transform="matrix(6.016634,0,0,-6.020746,50.04862,80.29414)"/>
<use data-text="f" xlink:href="#font_1_20" transform="matrix(6.016634,0,0,-6.020746,53.183286,80.29414)"/>
<use data-text="u" xlink:href="#font_1_17" transform="matrix(6.016634,0,0,-6.020746,55.30114,80.29414)"/>
<use data-text="s" xlink:href="#font_1_12" transform="matrix(6.016634,0,0,-6.020746,59.10967,80.29414)"/>
<use data-text="e" xlink:href="#font_1_9" transform="matrix(6.016634,0,0,-6.020746,62.244337,80.29414)"/>
<use data-text="r" xlink:href="#font_1_8" transform="matrix(6.016634,0,0,-6.020746,65.830249,80.29414)"/>
<use data-text="U" xlink:href="#font_1_42" transform="matrix(6.016634,0,0,-6.020746,49.297594,85.983028)"/>
<use data-text="n" xlink:href="#font_1_39" transform="matrix(6.016634,0,0,-6.020746,53.701768,85.983028)"/>
<use data-text="i" xlink:href="#font_1_13" transform="matrix(6.016634,0,0,-6.020746,57.510297,85.983028)"/>
<use data-text="A" xlink:href="#font_1_43" transform="matrix(6.016634,0,0,-6.020746,59.158857,85.983028)"/>
<use data-text="D" xlink:href="#font_1_2" transform="matrix(6.016634,0,0,-6.020746,63.274236,85.983028)"/>
<path d="M147.016 103.645C147.016 104.785 146.094 105.711 144.953 105.711 143.812 105.711 142.891 104.785 142.891 103.645 142.891 102.504 143.812 101.582 144.953 101.582 146.094 101.582 147.016 102.504 147.016 103.645ZM147.016 103.645" fill="#0009f8"/>
<path d="M147.016 111.289C147.016 112.43 146.094 113.355 144.953 113.355 143.812 113.355 142.891 112.43 142.891 111.289 142.891 110.148 143.812 109.223 144.953 109.223 146.094 109.223 147.016 110.148 147.016 111.289ZM147.016 111.289" fill="#f300f8"/>
<path d="M74.828 61.664C74.828 63.238 73.559 64.512 71.988 64.512 70.418 64.512 69.145 63.238 69.145 61.664 69.145 60.094 70.418 58.82 71.988 58.82 73.559 58.82 74.828 60.094 74.828 61.664ZM74.828 61.664" fill="#f300f8"/>
<path d="M114.844 50.875C114.844 52.445 113.57 53.719 112 53.719 110.43 53.719 109.156 52.445 109.156 50.875 109.156 49.301 110.43 48.027 112 48.027 113.57 48.027 114.844 49.301 114.844 50.875ZM114.844 50.875" fill="#f300f8"/>
<path d="M74.992 79.379C74.992 80.949 73.719 82.223 72.148 82.223 70.578 82.223 69.305 80.949 69.305 79.379 69.305 77.809 70.578 76.535 72.148 76.535 73.719 76.535 74.992 77.809 74.992 79.379ZM74.992 79.379" fill="#f300f8"/>
<path d="M74.992 83.605C74.992 85.176 73.719 86.449 72.148 86.449 70.578 86.449 69.305 85.176 69.305 83.605 69.305 82.035 70.578 80.762 72.148 80.762 73.719 80.762 74.992 82.035 74.992 83.605ZM74.992 83.605" fill="#8500f8"/>
<path d="M147.059 118.809C147.059 119.949 146.137 120.875 144.996 120.875 143.855 120.875 142.934 119.949 142.934 118.809 142.934 117.668 143.855 116.742 144.996 116.742 146.137 116.742 147.059 117.668 147.059 118.809ZM147.059 118.809" fill="#8500f8"/>
<use data-text="E" xlink:href="#font_1_44" transform="matrix(5.957595,-.841378,-.840803,-5.961667,113.84442,47.277238)" fill="#cc8800"/>
<use data-text="f" xlink:href="#font_1_20" transform="matrix(5.957595,-.841378,-.840803,-5.961667,117.60962,46.745489)" fill="#cc8800"/>
<use data-text="f" xlink:href="#font_1_20" transform="matrix(5.957595,-.841378,-.840803,-5.961667,119.706699,46.44932)" fill="#cc8800"/>
<use data-text="i" xlink:href="#font_1_13" transform="matrix(5.957595,-.841378,-.840803,-5.961667,121.80377,46.153158)" fill="#cc8800"/>
<use data-text="c" xlink:href="#font_1_6" transform="matrix(5.957595,-.841378,-.840803,-5.961667,123.43615,45.92262)" fill="#cc8800"/>
<use data-text="i" xlink:href="#font_1_13" transform="matrix(5.957595,-.841378,-.840803,-5.961667,126.540058,45.48426)" fill="#cc8800"/>
<use data-text="e" xlink:href="#font_1_9" transform="matrix(5.957595,-.841378,-.840803,-5.961667,128.17244,45.253725)" fill="#cc8800"/>
<use data-text="n" xlink:href="#font_1_39" transform="matrix(5.957595,-.841378,-.840803,-5.961667,131.72316,44.752264)" fill="#cc8800"/>
<use data-text="c" xlink:href="#font_1_6" transform="matrix(5.957595,-.841378,-.840803,-5.961667,135.49433,44.21967)" fill="#cc8800"/>
<use data-text="y" xlink:href="#font_1_36" transform="matrix(5.957595,-.841378,-.840803,-5.961667,138.59824,43.78131)" fill="#cc8800"/>
<use data-text=" " xlink:href="#font_1_4" transform="matrix(5.957595,-.841378,-.840803,-5.961667,142.12514,43.283216)" fill="#cc8800"/>
<use data-text="F" xlink:href="#font_1_45" transform="matrix(5.957595,-.841378,-.840803,-5.961667,144.22222,42.98705)" fill="#cc8800"/>
<use data-text="r" xlink:href="#font_1_8" transform="matrix(5.957595,-.841378,-.840803,-5.961667,147.64783,42.503259)" fill="#cc8800"/>
<use data-text="o" xlink:href="#font_1_7" transform="matrix(5.957595,-.841378,-.840803,-5.961667,150.19173,42.14399)" fill="#cc8800"/>
<use data-text="n" xlink:href="#font_1_39" transform="matrix(5.957595,-.841378,-.840803,-5.961667,153.80799,41.633275)" fill="#cc8800"/>
<use data-text="t" xlink:href="#font_1_11" transform="matrix(5.957595,-.841378,-.840803,-5.961667,157.57915,41.10068)" fill="#cc8800"/>
<use data-text="i" xlink:href="#font_1_13" transform="matrix(5.957595,-.841378,-.840803,-5.961667,159.92644,40.769178)" fill="#cc8800"/>
<use data-text="e" xlink:href="#font_1_9" transform="matrix(5.957595,-.841378,-.840803,-5.961667,161.55883,40.53864)" fill="#cc8800"/>
<use data-text="r" xlink:href="#font_1_8" transform="matrix(5.957595,-.841378,-.840803,-5.961667,165.10955,40.037179)" fill="#cc8800"/>
<path d="M212.898 42.5C212.898 44.07 211.629 45.344 210.059 45.344 208.488 45.344 207.215 44.07 207.215 42.5 207.215 40.93 208.488 39.656 210.059 39.656 211.629 39.656 212.898 40.93 212.898 42.5ZM212.898 42.5" fill="#0009f8"/>
<use data-text="R" xlink:href="#font_1_34" transform="matrix(6.016634,0,0,-6.020746,195.6331,37.18912)"/>
<use data-text="e" xlink:href="#font_1_9" transform="matrix(6.016634,0,0,-6.020746,199.67028,37.18912)"/>
<use data-text="c" xlink:href="#font_1_6" transform="matrix(6.016634,0,0,-6.020746,203.25618,37.18912)"/>
<use data-text="o" xlink:href="#font_1_7" transform="matrix(6.016634,0,0,-6.020746,206.39084,37.18912)"/>
<use data-text="g" xlink:href="#font_1_46" transform="matrix(6.016634,0,0,-6.020746,210.04294,37.18912)"/>
<use data-text="D" xlink:href="#font_1_2" transform="matrix(6.016634,0,0,-6.020746,213.7913,37.18912)"/>
<use data-text="r" xlink:href="#font_1_8" transform="matrix(6.016634,0,0,-6.020746,218.43013,37.18912)"/>
<use data-text="i" xlink:href="#font_1_13" transform="matrix(6.016634,0,0,-6.020746,220.99924,37.18912)"/>
<use data-text="v" xlink:href="#font_1_40" transform="matrix(6.016634,0,0,-6.020746,222.6478,37.18912)"/>
<use data-text="e" xlink:href="#font_1_9" transform="matrix(6.016634,0,0,-6.020746,226.15549,37.18912)"/>
<use data-text="O" xlink:href="#font_1_47" transform="matrix(4.367217,0,0,-4.370202,149.26934,98.223369)"/>
<use data-text="u" xlink:href="#font_1_17" transform="matrix(4.367217,0,0,-4.370202,152.70633,98.223369)"/>
<use data-text="r" xlink:href="#font_1_8" transform="matrix(4.367217,0,0,-4.370202,155.47078,98.223369)"/>
<use data-text=" " xlink:href="#font_1_4" transform="matrix(4.367217,0,0,-4.370202,157.33559,98.223369)"/>
<use data-text="M" xlink:href="#font_1_3" transform="matrix(4.367217,0,0,-4.370202,158.87285,98.223369)"/>
<use data-text="e" xlink:href="#font_1_9" transform="matrix(4.367217,0,0,-4.370202,162.55442,98.223369)"/>
<use data-text="t" xlink:href="#font_1_11" transform="matrix(4.367217,0,0,-4.370202,165.15727,98.223369)"/>
<use data-text="h" xlink:href="#font_1_48" transform="matrix(4.367217,0,0,-4.370202,166.87796,98.223369)"/>
<use data-text="o" xlink:href="#font_1_7" transform="matrix(4.367217,0,0,-4.370202,169.64241,98.223369)"/>
<use data-text="d" xlink:href="#font_1_37" transform="matrix(4.367217,0,0,-4.370202,172.2933,98.223369)"/>
<use data-text=" " xlink:href="#font_1_4" transform="matrix(4.367217,0,0,-4.370202,175.01409,98.223369)"/>
<use data-text="(" xlink:href="#font_1_15" transform="matrix(4.367217,0,0,-4.370202,176.55135,98.223369)"/>
<use data-text="V" xlink:href="#font_1_49" transform="matrix(4.367217,0,0,-4.370202,178.53406,98.223369)"/>
<use data-text="i" xlink:href="#font_1_13" transform="matrix(4.367217,0,0,-4.370202,181.52124,98.223369)"/>
<use data-text="s" xlink:href="#font_1_12" transform="matrix(4.367217,0,0,-4.370202,182.71787,98.223369)"/>
<use data-text="i" xlink:href="#font_1_13" transform="matrix(4.367217,0,0,-4.370202,184.99318,98.223369)"/>
<use data-text="o" xlink:href="#font_1_7" transform="matrix(4.367217,0,0,-4.370202,186.1898,98.223369)"/>
<use data-text="n" xlink:href="#font_1_39" transform="matrix(4.367217,0,0,-4.370202,188.8407,98.223369)"/>
<use data-text="-" xlink:href="#font_1_38" transform="matrix(4.367217,0,0,-4.370202,191.60515,98.223369)"/>
<use data-text="o" xlink:href="#font_1_7" transform="matrix(4.367217,0,0,-4.370202,193.58786,98.223369)"/>
<use data-text="n" xlink:href="#font_1_39" transform="matrix(4.367217,0,0,-4.370202,196.23876,98.223369)"/>
<use data-text="l" xlink:href="#font_1_22" transform="matrix(4.367217,0,0,-4.370202,199.0032,98.223369)"/>
<use data-text="y" xlink:href="#font_1_36" transform="matrix(4.367217,0,0,-4.370202,200.19983,98.223369)"/>
<use data-text=")" xlink:href="#font_1_23" transform="matrix(4.367217,0,0,-4.370202,202.78522,98.223369)"/>
<use data-text="V" xlink:href="#font_1_49" transform="matrix(4.367217,0,0,-4.370202,149.26934,105.272869)"/>
<use data-text="L" xlink:href="#font_1_50" transform="matrix(4.367217,0,0,-4.370202,152.25652,105.272869)"/>
<use data-text="A" xlink:href="#font_1_43" transform="matrix(4.367217,0,0,-4.370202,154.68906,105.272869)"/>
<use data-text=" " xlink:href="#font_1_4" transform="matrix(4.367217,0,0,-4.370202,157.67624,105.272869)"/>
<use data-text="B" xlink:href="#font_1_51" transform="matrix(4.367217,0,0,-4.370202,159.2135,105.272869)"/>
<use data-text="a" xlink:href="#font_1_10" transform="matrix(4.367217,0,0,-4.370202,162.20941,105.272869)"/>
<use data-text="s" xlink:href="#font_1_12" transform="matrix(4.367217,0,0,-4.370202,164.8341,105.272869)"/>
<use data-text="e" xlink:href="#font_1_9" transform="matrix(4.367217,0,0,-4.370202,167.10942,105.272869)"/>
<use data-text="l" xlink:href="#font_1_22" transform="matrix(4.367217,0,0,-4.370202,169.71228,105.272869)"/>
<use data-text="i" xlink:href="#font_1_13" transform="matrix(4.367217,0,0,-4.370202,170.9089,105.272869)"/>
<use data-text="n" xlink:href="#font_1_39" transform="matrix(4.367217,0,0,-4.370202,172.10553,105.272869)"/>
<use data-text="e" xlink:href="#font_1_9" transform="matrix(4.367217,0,0,-4.370202,174.86998,105.272869)"/>
<use data-text=" " xlink:href="#font_1_4" transform="matrix(4.367217,0,0,-4.370202,177.47284,105.272869)"/>
<use data-text="(" xlink:href="#font_1_15" transform="matrix(4.367217,0,0,-4.370202,179.0101,105.272869)"/>
<use data-text="V" xlink:href="#font_1_49" transform="matrix(4.367217,0,0,-4.370202,180.99282,105.272869)"/>
<use data-text="i" xlink:href="#font_1_13" transform="matrix(4.367217,0,0,-4.370202,183.98,105.272869)"/>
<use data-text="s" xlink:href="#font_1_12" transform="matrix(4.367217,0,0,-4.370202,185.17662,105.272869)"/>
<use data-text="i" xlink:href="#font_1_13" transform="matrix(4.367217,0,0,-4.370202,187.45194,105.272869)"/>
<use data-text="o" xlink:href="#font_1_7" transform="matrix(4.367217,0,0,-4.370202,188.64856,105.272869)"/>
<use data-text="n" xlink:href="#font_1_39" transform="matrix(4.367217,0,0,-4.370202,191.29946,105.272869)"/>
<use data-text="-" xlink:href="#font_1_38" transform="matrix(4.367217,0,0,-4.370202,194.0639,105.272869)"/>
<use data-text="o" xlink:href="#font_1_7" transform="matrix(4.367217,0,0,-4.370202,196.04662,105.272869)"/>
<use data-text="n" xlink:href="#font_1_39" transform="matrix(4.367217,0,0,-4.370202,198.69751,105.272869)"/>
<use data-text="l" xlink:href="#font_1_22" transform="matrix(4.367217,0,0,-4.370202,201.46196,105.272869)"/>
<use data-text="y" xlink:href="#font_1_36" transform="matrix(4.367217,0,0,-4.370202,202.65859,105.272869)"/>
<use data-text=")" xlink:href="#font_1_23" transform="matrix(4.367217,0,0,-4.370202,205.24398,105.272869)"/>
<use data-text="N" xlink:href="#font_1_16" transform="matrix(4.367217,0,0,-4.370202,149.26934,112.916179)"/>
<use data-text="o" xlink:href="#font_1_7" transform="matrix(4.367217,0,0,-4.370202,152.53601,112.916179)"/>
<use data-text="n" xlink:href="#font_1_39" transform="matrix(4.367217,0,0,-4.370202,155.1869,112.916179)"/>
<use data-text="-" xlink:href="#font_1_38" transform="matrix(4.367217,0,0,-4.370202,157.95136,112.916179)"/>
<use data-text="V" xlink:href="#font_1_49" transform="matrix(4.367217,0,0,-4.370202,159.82926,112.916179)"/>
<use data-text="L" xlink:href="#font_1_50" transform="matrix(4.367217,0,0,-4.370202,162.81644,112.916179)"/>
<use data-text="A" xlink:href="#font_1_43" transform="matrix(4.367217,0,0,-4.370202,165.24898,112.916179)"/>
<use data-text=" " xlink:href="#font_1_4" transform="matrix(4.367217,0,0,-4.370202,168.23616,112.916179)"/>
<use data-text="B" xlink:href="#font_1_51" transform="matrix(4.367217,0,0,-4.370202,169.77342,112.916179)"/>
<use data-text="a" xlink:href="#font_1_10" transform="matrix(4.367217,0,0,-4.370202,172.76934,112.916179)"/>
<use data-text="s" xlink:href="#font_1_12" transform="matrix(4.367217,0,0,-4.370202,175.39403,112.916179)"/>
<use data-text="e" xlink:href="#font_1_9" transform="matrix(4.367217,0,0,-4.370202,177.66934,112.916179)"/>
<use data-text="l" xlink:href="#font_1_22" transform="matrix(4.367217,0,0,-4.370202,180.2722,112.916179)"/>
<use data-text="i" xlink:href="#font_1_13" transform="matrix(4.367217,0,0,-4.370202,181.46883,112.916179)"/>
<use data-text="n" xlink:href="#font_1_39" transform="matrix(4.367217,0,0,-4.370202,182.66545,112.916179)"/>
<use data-text="e" xlink:href="#font_1_9" transform="matrix(4.367217,0,0,-4.370202,185.4299,112.916179)"/>
<use data-text="N" xlink:href="#font_1_16" transform="matrix(4.367217,0,0,-4.370202,149.26934,120.36517)"/>
<use data-text="o" xlink:href="#font_1_7" transform="matrix(4.367217,0,0,-4.370202,152.53601,120.36517)"/>
<use data-text="n" xlink:href="#font_1_39" transform="matrix(4.367217,0,0,-4.370202,155.1869,120.36517)"/>
<use data-text="-" xlink:href="#font_1_38" transform="matrix(4.367217,0,0,-4.370202,157.95136,120.36517)"/>
<use data-text="V" xlink:href="#font_1_49" transform="matrix(4.367217,0,0,-4.370202,159.82926,120.36517)"/>
<use data-text="L" xlink:href="#font_1_50" transform="matrix(4.367217,0,0,-4.370202,162.81644,120.36517)"/>
<use data-text="A" xlink:href="#font_1_43" transform="matrix(4.367217,0,0,-4.370202,165.24898,120.36517)"/>
<use data-text=" " xlink:href="#font_1_4" transform="matrix(4.367217,0,0,-4.370202,168.23616,120.36517)"/>
<use data-text="B" xlink:href="#font_1_51" transform="matrix(4.367217,0,0,-4.370202,169.77342,120.36517)"/>
<use data-text="a" xlink:href="#font_1_10" transform="matrix(4.367217,0,0,-4.370202,172.76934,120.36517)"/>
<use data-text="s" xlink:href="#font_1_12" transform="matrix(4.367217,0,0,-4.370202,175.39403,120.36517)"/>
<use data-text="e" xlink:href="#font_1_9" transform="matrix(4.367217,0,0,-4.370202,177.66934,120.36517)"/>
<use data-text="l" xlink:href="#font_1_22" transform="matrix(4.367217,0,0,-4.370202,180.2722,120.36517)"/>
<use data-text="i" xlink:href="#font_1_13" transform="matrix(4.367217,0,0,-4.370202,181.46883,120.36517)"/>
<use data-text="n" xlink:href="#font_1_39" transform="matrix(4.367217,0,0,-4.370202,182.66545,120.36517)"/>
<use data-text="e" xlink:href="#font_1_9" transform="matrix(4.367217,0,0,-4.370202,185.4299,120.36517)"/>
<use data-text=" " xlink:href="#font_1_4" transform="matrix(4.367217,0,0,-4.370202,188.03276,120.36517)"/>
<use data-text="(" xlink:href="#font_1_15" transform="matrix(4.367217,0,0,-4.370202,189.57003,120.36517)"/>
<use data-text="V" xlink:href="#font_1_49" transform="matrix(4.367217,0,0,-4.370202,191.55274,120.36517)"/>
<use data-text="i" xlink:href="#font_1_13" transform="matrix(4.367217,0,0,-4.370202,194.53992,120.36517)"/>
<use data-text="s" xlink:href="#font_1_12" transform="matrix(4.367217,0,0,-4.370202,195.73654,120.36517)"/>
<use data-text="i" xlink:href="#font_1_13" transform="matrix(4.367217,0,0,-4.370202,198.01186,120.36517)"/>
<use data-text="o" xlink:href="#font_1_7" transform="matrix(4.367217,0,0,-4.370202,199.20848,120.36517)"/>
<use data-text="n" xlink:href="#font_1_39" transform="matrix(4.367217,0,0,-4.370202,201.85938,120.36517)"/>
<use data-text="-" xlink:href="#font_1_38" transform="matrix(4.367217,0,0,-4.370202,204.62383,120.36517)"/>
<use data-text="o" xlink:href="#font_1_7" transform="matrix(4.367217,0,0,-4.370202,206.60654,120.36517)"/>
<use data-text="n" xlink:href="#font_1_39" transform="matrix(4.367217,0,0,-4.370202,209.25743,120.36517)"/>
<use data-text="l" xlink:href="#font_1_22" transform="matrix(4.367217,0,0,-4.370202,212.02188,120.36517)"/>
<use data-text="y" xlink:href="#font_1_36" transform="matrix(4.367217,0,0,-4.370202,213.2185,120.36517)"/>
<use data-text=")" xlink:href="#font_1_23" transform="matrix(4.367217,0,0,-4.370202,215.8039,120.36517)"/>
<path d="M173.105 43.785C173.105 45.355 171.832 46.629 170.262 46.629 168.691 46.629 167.418 45.355 167.418 43.785 167.418 42.211 168.691 40.938 170.262 40.938 171.832 40.938 173.105 42.211 173.105 43.785ZM173.105 43.785" fill="#0009f8"/>
<use data-text="A" xlink:href="#font_1_43" transform="matrix(6.016634,0,0,-6.020746,158.8921,52.31714)"/>
<use data-text="u" xlink:href="#font_1_17" transform="matrix(6.016634,0,0,-6.020746,162.97739,52.31714)"/>
<use data-text="t" xlink:href="#font_1_11" transform="matrix(6.016634,0,0,-6.020746,166.78592,52.31714)"/>
<use data-text="o" xlink:href="#font_1_7" transform="matrix(6.016634,0,0,-6.020746,169.15648,52.31714)"/>
<use data-text="V" xlink:href="#font_1_49" transform="matrix(6.016634,0,0,-6.020746,172.80858,52.31714)"/>
<use data-text="L" xlink:href="#font_1_50" transform="matrix(6.016634,0,0,-6.020746,176.92395,52.31714)"/>
<use data-text="A" xlink:href="#font_1_43" transform="matrix(6.016634,0,0,-6.020746,180.27523,52.31714)"/>
<path d="M52.07 70.863 49.957 69.828 47.922 71.016 48.234 68.648 46.496 67.043 48.805 66.617 49.766 64.438 50.879 66.539 53.207 66.797 51.59 68.523ZM52.07 70.863" fill="#f49f02"/>
<path d="M146.191 98.934 144.656 98.184 143.18 99.043 143.406 97.328 142.145 96.164 143.82 95.852 144.516 94.27 145.324 95.797 147.016 95.984 145.84 97.238ZM146.191 98.934" fill="#f49f02"/>
<use data-text="H" xlink:href="#font_1_35" transform="matrix(6.016634,0,0,-6.020746,78.04666,69.28119)" fill="#45ad45"/>
<use data-text="i" xlink:href="#font_1_13" transform="matrix(6.016634,0,0,-6.020746,82.565158,69.28119)" fill="#45ad45"/>
<use data-text="g" xlink:href="#font_1_46" transform="matrix(6.016634,0,0,-6.020746,84.213718,69.28119)" fill="#45ad45"/>
<use data-text="h" xlink:href="#font_1_48" transform="matrix(6.016634,0,0,-6.020746,87.962078,69.28119)" fill="#45ad45"/>
<use data-text=" " xlink:href="#font_1_4" transform="matrix(6.016634,0,0,-6.020746,91.77061,69.28119)" fill="#45ad45"/>
<use data-text="E" xlink:href="#font_1_44" transform="matrix(6.016634,0,0,-6.020746,93.888469,69.28119)" fill="#45ad45"/>
<use data-text="f" xlink:href="#font_1_20" transform="matrix(6.016634,0,0,-6.020746,97.69098,69.28119)" fill="#45ad45"/>
<use data-text="f" xlink:href="#font_1_20" transform="matrix(6.016634,0,0,-6.020746,99.80884,69.28119)" fill="#45ad45"/>
<use data-text="i" xlink:href="#font_1_13" transform="matrix(6.016634,0,0,-6.020746,101.9267,69.28119)" fill="#45ad45"/>
<use data-text="c" xlink:href="#font_1_6" transform="matrix(6.016634,0,0,-6.020746,103.57526,69.28119)" fill="#45ad45"/>
<use data-text="i" xlink:href="#font_1_13" transform="matrix(6.016634,0,0,-6.020746,106.70992,69.28119)" fill="#45ad45"/>
<use data-text="e" xlink:href="#font_1_9" transform="matrix(6.016634,0,0,-6.020746,108.35848,69.28119)" fill="#45ad45"/>
<use data-text="n" xlink:href="#font_1_39" transform="matrix(6.016634,0,0,-6.020746,111.9444,69.28119)" fill="#45ad45"/>
<use data-text="c" xlink:href="#font_1_6" transform="matrix(6.016634,0,0,-6.020746,115.75293,69.28119)" fill="#45ad45"/>
<use data-text="y" xlink:href="#font_1_36" transform="matrix(6.016634,0,0,-6.020746,118.887599,69.28119)" fill="#45ad45"/>
<use data-text="H" xlink:href="#font_1_35" transform="matrix(6.016634,0,0,-6.020746,126.06506,69.28119)" fill="#b7a600"/>
<use data-text="i" xlink:href="#font_1_13" transform="matrix(6.016634,0,0,-6.020746,130.58356,69.28119)" fill="#b7a600"/>
<use data-text="g" xlink:href="#font_1_46" transform="matrix(6.016634,0,0,-6.020746,132.23212,69.28119)" fill="#b7a600"/>
<use data-text="h" xlink:href="#font_1_48" transform="matrix(6.016634,0,0,-6.020746,135.98049,69.28119)" fill="#b7a600"/>
<use data-text=" " xlink:href="#font_1_4" transform="matrix(6.016634,0,0,-6.020746,139.78902,69.28119)" fill="#b7a600"/>
<use data-text="P" xlink:href="#font_1_1" transform="matrix(6.016634,0,0,-6.020746,141.90688,69.28119)" fill="#b7a600"/>
<use data-text="e" xlink:href="#font_1_9" transform="matrix(6.016634,0,0,-6.020746,145.39052,69.28119)" fill="#b7a600"/>
<use data-text="r" xlink:href="#font_1_8" transform="matrix(6.016634,0,0,-6.020746,148.97643,69.28119)" fill="#b7a600"/>
<use data-text="f" xlink:href="#font_1_20" transform="matrix(6.016634,0,0,-6.020746,151.54553,69.28119)" fill="#b7a600"/>
<use data-text="o" xlink:href="#font_1_7" transform="matrix(6.016634,0,0,-6.020746,153.66339,69.28119)" fill="#b7a600"/>
<use data-text="r" xlink:href="#font_1_8" transform="matrix(6.016634,0,0,-6.020746,157.31549,69.28119)" fill="#b7a600"/>
<use data-text="m" xlink:href="#font_1_18" transform="matrix(6.016634,0,0,-6.020746,159.8846,69.28119)" fill="#b7a600"/>
<use data-text="a" xlink:href="#font_1_10" transform="matrix(6.016634,0,0,-6.020746,165.73879,69.28119)" fill="#b7a600"/>
<use data-text="n" xlink:href="#font_1_39" transform="matrix(6.016634,0,0,-6.020746,169.35478,69.28119)" fill="#b7a600"/>
<use data-text="c" xlink:href="#font_1_6" transform="matrix(6.016634,0,0,-6.020746,173.16332,69.28119)" fill="#b7a600"/>
<use data-text="e" xlink:href="#font_1_9" transform="matrix(6.016634,0,0,-6.020746,176.29798,69.28119)" fill="#b7a600"/>
<use data-text="L" xlink:href="#font_1_50" transform="matrix(6.016634,0,0,-6.020746,78.94857,80.711788)" fill="#a50036" fill-opacity=".589744"/>
<use data-text="o" xlink:href="#font_1_7" transform="matrix(6.016634,0,0,-6.020746,82.297679,80.711788)" fill="#a50036" fill-opacity=".589744"/>
<use data-text="w" xlink:href="#font_1_52" transform="matrix(6.016634,0,0,-6.020746,85.94937,80.711788)" fill="#a50036" fill-opacity=".589744"/>
<use data-text=" " xlink:href="#font_1_4" transform="matrix(6.016634,0,0,-6.020746,90.87314,80.711788)" fill="#a50036" fill-opacity=".589744"/>
<use data-text="E" xlink:href="#font_1_44" transform="matrix(6.016634,0,0,-6.020746,92.988368,80.711788)" fill="#a50036" fill-opacity=".589744"/>
<use data-text="f" xlink:href="#font_1_20" transform="matrix(6.016634,0,0,-6.020746,96.79282,80.711788)" fill="#a50036" fill-opacity=".589744"/>
<use data-text="f" xlink:href="#font_1_20" transform="matrix(6.016634,0,0,-6.020746,98.90805,80.711788)" fill="#a50036" fill-opacity=".589744"/>
<use data-text="i" xlink:href="#font_1_13" transform="matrix(6.016634,0,0,-6.020746,101.02327,80.711788)" fill="#a50036" fill-opacity=".589744"/>
<use data-text="c" xlink:href="#font_1_6" transform="matrix(6.016634,0,0,-6.020746,102.674327,80.711788)" fill="#a50036" fill-opacity=".589744"/>
<use data-text="i" xlink:href="#font_1_13" transform="matrix(6.016634,0,0,-6.020746,105.80896,80.711788)" fill="#a50036" fill-opacity=".589744"/>
<use data-text="e" xlink:href="#font_1_9" transform="matrix(6.016634,0,0,-6.020746,107.460018,80.711788)" fill="#a50036" fill-opacity=".589744"/>
<use data-text="n" xlink:href="#font_1_39" transform="matrix(6.016634,0,0,-6.020746,111.04414,80.711788)" fill="#a50036" fill-opacity=".589744"/>
<use data-text="c" xlink:href="#font_1_6" transform="matrix(6.016634,0,0,-6.020746,114.85154,80.711788)" fill="#a50036" fill-opacity=".589744"/>
<use data-text="y" xlink:href="#font_1_36" transform="matrix(6.016634,0,0,-6.020746,117.98618,80.711788)" fill="#a50036" fill-opacity=".589744"/>
<use data-text="L" xlink:href="#font_1_50" transform="matrix(6.016634,0,0,-6.020746,126.06506,80.750759)" fill="#000ef8" fill-opacity=".5"/>
<use data-text="o" xlink:href="#font_1_7" transform="matrix(6.016634,0,0,-6.020746,129.41417,80.750759)" fill="#000ef8" fill-opacity=".5"/>
<use data-text="w" xlink:href="#font_1_52" transform="matrix(6.016634,0,0,-6.020746,133.06586,80.750759)" fill="#000ef8" fill-opacity=".5"/>
<use data-text=" " xlink:href="#font_1_4" transform="matrix(6.016634,0,0,-6.020746,137.98964,80.750759)" fill="#000ef8" fill-opacity=".5"/>
<use data-text="P" xlink:href="#font_1_1" transform="matrix(6.016634,0,0,-6.020746,140.10486,80.750759)" fill="#000ef8" fill-opacity=".5"/>
<use data-text="e" xlink:href="#font_1_9" transform="matrix(6.016634,0,0,-6.020746,143.58617,80.750759)" fill="#000ef8" fill-opacity=".5"/>
<use data-text="r" xlink:href="#font_1_8" transform="matrix(6.016634,0,0,-6.020746,147.17029,80.750759)" fill="#000ef8" fill-opacity=".5"/>
<use data-text="f" xlink:href="#font_1_20" transform="matrix(6.016634,0,0,-6.020746,149.73793,80.750759)" fill="#000ef8" fill-opacity=".5"/>
<use data-text="o" xlink:href="#font_1_7" transform="matrix(6.016634,0,0,-6.020746,151.85315,80.750759)" fill="#000ef8" fill-opacity=".5"/>
<use data-text="r" xlink:href="#font_1_8" transform="matrix(6.016634,0,0,-6.020746,155.50485,80.750759)" fill="#000ef8" fill-opacity=".5"/>
<use data-text="m" xlink:href="#font_1_18" transform="matrix(6.016634,0,0,-6.020746,158.0725,80.750759)" fill="#000ef8" fill-opacity=".5"/>
<use data-text="a" xlink:href="#font_1_10" transform="matrix(6.016634,0,0,-6.020746,163.92462,80.750759)" fill="#000ef8" fill-opacity=".5"/>
<use data-text="n" xlink:href="#font_1_39" transform="matrix(6.016634,0,0,-6.020746,167.53812,80.750759)" fill="#000ef8" fill-opacity=".5"/>
<use data-text="c" xlink:href="#font_1_6" transform="matrix(6.016634,0,0,-6.020746,171.34552,80.750759)" fill="#000ef8" fill-opacity=".5"/>
<use data-text="e" xlink:href="#font_1_9" transform="matrix(6.016634,0,0,-6.020746,174.48017,80.750759)" fill="#000ef8" fill-opacity=".5"/>
<path transform="matrix(.999317,0,0,1,0,0)" stroke-width=".752591" stroke-linecap="butt" stroke-dasharray="1.505185,.752591" stroke-miterlimit="4" stroke-linejoin="miter" fill="none" stroke="#faaf00" d="M49.733 67.926 72.084 61.836 112.034 50.996 170.378 43.785 210.202 42.367"/>
</g>
</svg>
